<svg version="1.1" xmlns="http://www.w3.org/2000/svg" xmlns:xlink="http://www.w3.org/1999/xlink" width="315.13657" height="52.57937" viewBox="0,0,315.13657,52.57937"><g transform="translate(-296.65472,-151.90468)"><g data-paper-data="{&quot;isPaintingLayer&quot;:true}" fill-rule="nonzero" stroke="none" stroke-width="1" stroke-linecap="butt" stroke-linejoin="miter" stroke-miterlimit="10" stroke-dasharray="" stroke-dashoffset="0" style="mix-blend-mode: normal"><text transform="translate(363.12113,192.78193) scale(0.93617,0.93617)" font-size="40" xml:space="preserve" fill="#ffffff" fill-rule="nonzero" stroke="none" stroke-width="1" stroke-linecap="butt" stroke-linejoin="miter" stroke-miterlimit="10" stroke-dasharray="" stroke-dashoffset="0" font-family="Sans Serif" font-weight="normal" text-anchor="start" style="mix-blend-mode: normal"><tspan x="0" dy="0">Windows 更新</tspan></text><g><path d="M307.65364,169.94774c4.32876,-8.7756 18.35202,-10.86173 23.97483,-1.76985c1.18059,-0.55095 3.33582,-4.32973 4.49669,-4.88069c-0.09837,3.46303 -0.03938,6.94571 -0.19679,10.4087c-3.2269,-0.60999 -7.95961,1.13752 -11.18341,-2.62657c1.4167,-0.15741 4.98544,-0.42326 6.40214,-0.58067c-2.55791,-4.95841 -9.40524,-7.06374 -14.42269,-4.801c-3.9943,1.29862 -5.66674,5.41096 -8.20499,8.36237c-0.21645,-1.04284 -0.64933,-3.08918 -0.86577,-4.11232z" fill="#f2f2f9"/><path d="M317.92469,151.90469h7.16215c4.76166,1.47569 9.8381,3.08918 13.22244,6.98506c-0.55095,1.10188 -1.63313,3.30561 -2.18406,4.40749c-1.16091,0.55095 -3.24748,3.78061 -4.42804,4.33157c-5.34826,-8.74864 -19.71467,-6.45659 -24.04347,2.31901c0.21645,1.02315 0.64929,3.06948 0.86574,4.11232c-0.35417,1.2199 -1.04284,3.67947 -1.397,4.91907c-0.17707,0.55095 -0.51161,1.65283 -0.68868,2.20374c-2.26274,2.36115 -4.64359,4.6239 -6.98505,6.92602c-1.4167,-2.51856 -1.9873,-5.37161 -2.794,-8.10658v-7.31956c2.12506,-10.44808 10.60549,-19.18434 21.27002,-20.7781z" fill="#1596e0"/><path d="M336.12523,163.29724c0.55095,-1.10188 1.63313,-3.30561 2.18406,-4.40749c4.19104,3.69913 6.43413,8.93305 7.53601,14.30465v7.08343c-1.9873,10.4087 -10.44808,19.145 -21.01423,20.81748h-7.37856c-7.51632,-1.57411 -14.22593,-6.27672 -18.00378,-12.9863c2.34147,-2.30212 4.37911,-4.35898 6.64186,-6.72013c-0.01969,2.73501 0.36285,5.26409 0.44158,7.9991c1.61345,-0.62964 1.57955,-3.95592 3.193,-4.58556c3.15276,6.01456 13.03989,7.67473 18.33281,4.54622c3.52206,-2.06599 8.63789,-5.86353 6.29642,-10.56615c-3.24658,1.67248 -3.56141,6.33576 -7.22119,7.57535c-5.41095,3.71882 -12.67148,1.18056 -16.44933,-3.67947c1.73152,-0.31482 5.23389,-0.94443 6.98505,-1.25925c-1.77085,-4.46652 -6.94575,-1.9283 -10.5465,-2.43988c0.35417,-1.2396 1.04288,-3.69917 1.39704,-4.91907c2.53822,-2.95146 4.2107,-7.06374 8.20499,-8.36236c5.01745,-2.26274 11.86477,-0.15741 14.42268,4.801c-1.4167,0.15741 -4.23039,0.49188 -5.64704,0.64933c3.97886,4.10725 7.2015,1.94796 10.42839,2.55791c0.15741,-3.46303 0.09841,-6.94572 0.19675,-10.4087z" fill="#0983d8"/><path d="M307.12237,178.97917c3.60075,0.51157 8.77561,-2.02665 10.54646,2.43988c-1.75117,0.31482 -5.25354,0.94443 -6.98505,1.25925c3.77785,4.86003 11.03838,7.39829 16.44933,3.67947c3.65978,-1.2396 3.9746,-5.90287 7.22119,-7.57535c2.34147,4.70262 -2.77436,8.50013 -6.29638,10.56615c-5.29292,3.12851 -16.4842,0.91929 -18.26415,-4.958c-1.61345,0.62964 -1.64821,4.36774 -3.26165,4.99738c-0.07873,-2.73501 -0.11807,-5.46999 -0.09837,-8.20499c0.17707,-0.55095 0.5116,-1.65279 0.68867,-2.20374z" fill="#eaf1f6"/></g></g></g></svg>