<svg version="1.1" xmlns="http://www.w3.org/2000/svg" xmlns:xlink="http://www.w3.org/1999/xlink" width="366.10015" height="34.08132" viewBox="0,0,366.10015,34.08132"><g transform="translate(-157.00528,-114.59583)"><g data-paper-data="{&quot;isPaintingLayer&quot;:true}" fill-rule="nonzero" stroke="none" stroke-linecap="butt" stroke-linejoin="miter" stroke-miterlimit="10" stroke-dasharray="" stroke-dashoffset="0" style="mix-blend-mode: normal"><path d="M157.00528,140.96816v-18.5818h365.90651v18.5818z" fill="#1e221a" stroke-width="0"/><path d="M166.23603,148.67715v-34.03029h348.36536v34.03029z" fill="#1e221a" stroke-width="0"/><path d="M157.35831,122.6507c0,-4.44858 3.60628,-8.05487 8.05487,-8.05487c4.44858,0 8.05488,3.60628 8.05488,8.05487c0,4.44858 -3.60629,8.05488 -8.05488,8.05488c-4.44858,0 -8.05487,-3.60629 -8.05487,-8.05488z" fill="#1e221a" stroke-width="0"/><path d="M157.06793,140.25647c0,-4.44859 3.60628,-8.05487 8.05487,-8.05487c4.44859,0 8.05488,3.60629 8.05488,8.05487c0,4.44858 -3.60629,8.05487 -8.05488,8.05487c-4.44859,0 -8.05487,-3.60629 -8.05487,-8.05487z" fill="#1e221a" stroke-width="0"/><path d="M506.99569,140.32539c0,-4.44859 3.60629,-8.05487 8.05487,-8.05487c4.44858,0 8.05487,3.60628 8.05487,8.05487c0,4.44858 -3.60629,8.05487 -8.05487,8.05487c-4.44858,0 -8.05487,-3.60629 -8.05487,-8.05487z" fill="#1e221a" stroke-width="0"/><path d="M506.9838,122.92789c0,-4.44859 3.60629,-8.05487 8.05487,-8.05487c4.44858,0 8.05488,3.60629 8.05488,8.05487c0,4.44859 -3.60629,8.05487 -8.05488,8.05487c-4.44858,0 -8.05487,-3.60629 -8.05487,-8.05487z" fill="#1e221a" stroke-width="0"/><text transform="translate(174.73592,131.13494) scale(0.34054,0.34054)" font-size="40" xml:space="preserve" fill="#ffffff" fill-rule="nonzero" stroke="none" stroke-width="1" stroke-linecap="butt" stroke-linejoin="miter" stroke-miterlimit="10" stroke-dasharray="" stroke-dashoffset="0" font-family="Sans Serif" font-weight="normal" text-anchor="start" style="mix-blend-mode: normal"><tspan x="0" dy="0">当前主题</tspan></text><text transform="translate(175.48633,142.06576) scale(0.2261,0.2261)" font-size="40" xml:space="preserve" fill="#b6b6b6" fill-rule="nonzero" stroke="none" stroke-width="1" stroke-linecap="butt" stroke-linejoin="miter" stroke-miterlimit="10" stroke-dasharray="" stroke-dashoffset="0" font-family="Sans Serif" font-weight="normal" text-anchor="start" style="mix-blend-mode: normal"><tspan x="0" dy="0">选择墙纸和颜色的组合，使你的桌面更加富有个性</tspan></text></g></g></svg>