<svg version="1.1" xmlns="http://www.w3.org/2000/svg" xmlns:xlink="http://www.w3.org/1999/xlink" width="366.42496" height="133.87291" viewBox="0,0,366.42496,133.87291"><g transform="translate(-157.00528,-114.64686)"><g data-paper-data="{&quot;isPaintingLayer&quot;:true}" fill-rule="nonzero" stroke-linejoin="miter" stroke-miterlimit="10" stroke-dasharray="" stroke-dashoffset="0" style="mix-blend-mode: normal"><path d="M157.00528,240.80701v-118.42065h365.90651v118.42065z" fill="#f1f1f9" stroke="none" stroke-width="0" stroke-linecap="butt"/><path d="M167.53524,248.48235v-133.83549h347.06614v133.8355z" fill="#f1f1f9" stroke="none" stroke-width="0" stroke-linecap="butt"/><path d="M157.35831,122.97551c0,-4.44858 3.60628,-8.05487 8.05487,-8.05487c4.44858,0 8.05488,3.60628 8.05488,8.05487c0,4.44858 -3.60629,8.05488 -8.05488,8.05488c-4.44858,0 -8.05487,-3.60629 -8.05487,-8.05488z" fill="#f1f1f9" stroke="none" stroke-width="0" stroke-linecap="butt"/><path d="M157.06794,240.4649c0,-4.44859 3.60628,-8.05487 8.05487,-8.05487c4.44859,0 8.05488,3.60629 8.05488,8.05487c0,4.44858 -3.60629,8.05487 -8.05488,8.05487c-4.44859,0 -8.05487,-3.60629 -8.05487,-8.05487z" fill="#f1f1f9" stroke="none" stroke-width="0" stroke-linecap="butt"/><path d="M507.3205,239.88421c0,-4.44859 3.60629,-8.05487 8.05487,-8.05487c4.44858,0 8.05487,3.60628 8.05487,8.05487c0,4.44858 -3.60629,8.05487 -8.05487,8.05487c-4.44858,0 -8.05487,-3.60629 -8.05487,-8.05487z" fill="#f1f1f9" stroke="none" stroke-width="0" stroke-linecap="butt"/><path d="M507.3086,122.92789c0,-4.44859 3.60629,-8.05487 8.05487,-8.05487c4.44858,0 8.05488,3.60629 8.05488,8.05487c0,4.44859 -3.60629,8.05487 -8.05488,8.05487c-4.44858,0 -8.05487,-3.60629 -8.05487,-8.05487z" fill="#f1f1f9" stroke="none" stroke-width="0" stroke-linecap="butt"/><path d="M335.2501,151.63548l-170.65551,-0.61446h346.84685" fill="none" stroke="#5d5d5d" stroke-width="0.15" stroke-linecap="round"/><text transform="translate(174.7359,131.13494) scale(0.34054,0.34054)" font-size="40" xml:space="preserve" fill="#000000" fill-rule="nonzero" stroke="none" stroke-width="1" stroke-linecap="butt" stroke-linejoin="miter" stroke-miterlimit="10" stroke-dasharray="" stroke-dashoffset="0" font-family="Sans Serif" font-weight="normal" text-anchor="start" style="mix-blend-mode: normal"><tspan x="0" dy="0">当前主题</tspan></text><text transform="translate(175.48635,142.06576) scale(0.2261,0.2261)" font-size="40" xml:space="preserve" fill="#5d5d5d" fill-rule="nonzero" stroke="none" stroke-width="1" stroke-linecap="butt" stroke-linejoin="miter" stroke-miterlimit="10" stroke-dasharray="" stroke-dashoffset="0" font-family="Sans Serif" font-weight="normal" text-anchor="start" style="mix-blend-mode: normal"><tspan x="0" dy="0">选择墙纸和颜色的组合，使你的桌面更加富有个性</tspan></text></g></g></svg>