<svg version="1.1" xmlns="http://www.w3.org/2000/svg" xmlns:xlink="http://www.w3.org/1999/xlink" width="98.25405" height="30.10102" viewBox="0,0,98.25405,30.10102"><g transform="translate(-270.87297,-164.94949)"><g data-paper-data="{&quot;isPaintingLayer&quot;:true}" fill-rule="nonzero" stroke="none" stroke-linecap="butt" stroke-linejoin="miter" stroke-miterlimit="10" stroke-dasharray="" stroke-dashoffset="0" style="mix-blend-mode: normal"><path d="M270.87298,193.42053v-26.30858h98.18289v26.30858z" fill="#0067c7" stroke-width="0"/><path d="M274.1559,194.99426v-30.02621h91.18252v30.02621z" fill="#0067c7" stroke-width="0"/><path d="M270.894,167.16491c0,-1.22354 1.79919,-2.21542 4.0186,-2.21542c2.21941,0 4.0186,0.99188 4.0186,2.21542c0,1.22354 -1.79919,2.21542 -4.0186,2.21542c-2.21941,0 -4.0186,-0.99188 -4.0186,-2.21542z" fill="#0067c7" stroke-width="0"/><path d="M270.894,192.83509c0,-1.22354 1.79919,-2.21542 4.0186,-2.21542c2.21941,0 4.0186,0.99188 4.0186,2.21542c0,1.22354 -1.79919,2.21542 -4.0186,2.21542c-2.21941,0 -4.0186,-0.99188 -4.0186,-2.21542z" fill="#0067c7" stroke-width="0"/><path d="M360.91738,167.16491c0,-1.22354 1.79919,-2.21542 4.0186,-2.21542c2.21941,0 4.0186,0.99188 4.0186,2.21542c0,1.22354 -1.79919,2.21542 -4.0186,2.21542c-2.21941,0 -4.0186,-0.99188 -4.0186,-2.21542z" fill="#0067c7" stroke-width="0"/><path d="M361.08983,192.74002c0,-1.22354 1.79919,-2.21542 4.0186,-2.21542c2.21941,0 4.0186,0.99188 4.0186,2.21542c0,1.22354 -1.79919,2.21542 -4.0186,2.21542c-2.21941,0 -4.0186,-0.99188 -4.0186,-2.21542z" fill="#0067c7" stroke-width="0"/><text transform="translate(297,184.42271) scale(0.38333,0.38333)" font-size="40" xml:space="preserve" fill="#ffffff" fill-rule="nonzero" stroke="none" stroke-width="1" stroke-linecap="butt" stroke-linejoin="miter" stroke-miterlimit="10" stroke-dasharray="" stroke-dashoffset="0" font-family="Sans Serif" font-weight="normal" text-anchor="start" style="mix-blend-mode: normal"><tspan x="0" dy="0">下一步</tspan></text></g></g></svg>