<svg version="1.1" xmlns="http://www.w3.org/2000/svg" xmlns:xlink="http://www.w3.org/1999/xlink" width="137.41092" height="125.32171" viewBox="0,0,137.41092,125.32171"><g transform="translate(-251.29454,-117.33914)"><g data-paper-data="{&quot;isPaintingLayer&quot;:true}" fill-rule="nonzero" stroke="none" stroke-width="1" stroke-linecap="butt" stroke-linejoin="miter" stroke-miterlimit="10" stroke-dasharray="" stroke-dashoffset="0" style="mix-blend-mode: normal"><path d="M255.40426,118.32862c0.25192,-0.20687 0.76455,-0.62077 1.02542,-0.82765c17.03823,-0.19793 34.09452,0 51.1417,-0.05399v0.88164l-0.89059,0.0179c-17.09223,-0.0179 -34.18445,0 -51.27668,-0.0179z" fill="#acd1f5"/><path d="M307.57153,117.44698c25.21549,-0.08099 50.43114,0.12603 75.64663,-0.10783c0.19793,0.25192 0.59362,0.74665 0.79155,0.99857c-25.48546,-0.0179 -50.96182,0.027 -76.43818,-0.00895z" fill="#adcde7"/><path d="M255.40426,118.32862c17.09223,0.0179 34.18445,0 51.27668,0.0179l-0.027,0.86359l-0.88164,0.0179c-17.13727,0.65672 -34.44532,-1.17845 -51.4925,0.67461c0.27892,-0.39585 0.84569,-1.1874 1.12446,-1.57415z" fill="#7aa6d4"/><path d="M306.68094,118.34651l0.89059,-0.0179c25.47636,0.0361 50.95287,-0.00895 76.43818,0.00895l0.44984,0.59378c-25.9262,0.66567 -51.8703,0.16198 -77.80561,0.27891z" fill="#78a0c2"/><path d="M254.2798,119.90277c17.04718,-1.85321 34.35538,-0.0179 51.4925,-0.67461l0.00895,0.82765c-3.9491,0.25192 -8.02438,-0.35081 -11.91053,0.62077c-12.54025,-0.54873 -25.27859,-0.87254 -37.41404,3.1486c-2.45579,3.27448 -1.76312,7.75441 -2.01504,11.64967l-0.84554,-0.08099c-0.05399,-4.55197 0.06294,-9.11289 -0.18898,-13.66471c0.05399,-0.36885 0.16198,-1.11551 0.21597,-1.49331z" fill="#4b82c1"/><path d="M305.7723,119.22815l0.88164,-0.0179c25.93515,-0.11693 51.87925,0.38675 77.80561,-0.27891l-0.3599,0.91758c-0.49474,0.06294 -1.49331,0.19792 -1.99715,0.26087c-23.5693,1.86216 -47.28239,0.65672 -70.91463,0.80065c-1.73628,-0.62972 -3.57145,-0.7917 -5.40661,-0.85464z" fill="#4578af"/><path d="M384.45955,118.93134c1.20545,0.8187 2.50978,1.5922 3.36442,2.80674c-0.29681,13.25991 -0.26087,26.51998 -0.09904,39.77989c-0.20687,12.89106 -0.027,25.78227 -0.09904,38.67333l-0.89059,0.0091c-0.06294,-11.64072 0.12588,-23.28129 -0.08994,-34.92201c0.10799,-13.85369 0.14378,-27.70738 0.08099,-41.56122c0.30591,-1.85322 -1.55625,-2.7256 -2.62671,-3.86811z" fill="#7495be"/><path d="M251.78792,125.52535c-1.04347,-2.77065 -0.43179,-4.52497 1.83517,-5.28968c-0.05399,0.3778 -0.16198,1.12446 -0.21597,1.49331c-0.18003,2.30306 -0.54873,6.89082 -0.72861,9.19373c-0.06294,35.72266 0.18882,71.45441 -0.10799,107.18617l-0.45879,-0.56678c-0.74666,-37.3241 -0.08994,-74.684 -0.32381,-112.0169z" fill="#afd3f5"/><path d="M256.45683,123.82502c12.13546,-4.02114 24.87379,-3.69733 37.41404,-3.1486c2.77975,0.73756 6.90887,0.8096 5.61349,4.81284c-10.97505,0.51279 -22.13909,-1.02542 -32.97006,1.30448c-1.5473,1.12446 -3.1125,2.23997 -4.51588,3.53535c-0.3869,5.36157 -1.37653,10.73208 -3.1847,15.80579c-1.10641,0.32381 -1.83517,-0.04489 -2.19492,-1.10641c-0.65672,-3.20244 -1.27734,-6.41414 -2.17687,-9.55379c0.25192,-3.89526 -0.44089,-8.37519 2.01504,-11.64967z" fill="#3c7fc8"/><path d="M293.87072,120.67642c3.88631,-0.97158 7.96144,-0.36885 11.91053,-0.62077c1.83517,0.06294 3.67033,0.22492 5.40661,0.85464l0.04489,0.8096c-3.37337,-0.61167 -4.81284,2.20402 -6.45008,4.52498c-1.25049,0.24297 -2.49188,0.50369 -3.72433,0.82749c-10.72314,0.54873 -21.45522,0.08099 -32.18731,0.26087c-1.33133,-0.26087 -2.10513,0.73756 -2.79764,1.67319c-0.20687,0.24297 -0.62077,0.72876 -0.82765,0.97158c-0.22492,0.21597 -0.67477,0.66566 -0.89969,0.89059c-0.23387,0.22492 -0.70161,0.67477 -0.92653,0.89954c-1.74523,2.03309 -0.4139,5.43346 -1.00767,7.96129c-1.97,4.77674 -3.53535,10.05747 -2.67176,15.26616c-1.07941,0.46774 -2.16807,0.86359 -3.27448,1.25034c-0.53068,-3.4994 -1.39442,-6.94482 -2.64476,-10.2554c-0.15303,-3.5264 -0.22477,-7.06175 -0.22477,-10.5971l0.84554,0.08099c0.89969,3.13965 1.52016,6.35119 2.17687,9.55379c0.3599,1.06151 1.08851,1.43037 2.19492,1.10641c1.80817,-5.07371 2.79779,-10.44422 3.1847,-15.80579c1.40337,-1.29538 2.96857,-2.41089 4.51588,-3.53535c10.83097,-2.3299 21.995,-0.7917 32.97006,-1.30448c1.29539,-4.00324 -2.83374,-4.07528 -5.61349,-4.81284z" fill="#3f7bbf"/><path d="M311.18787,120.91044c23.63225,-0.14393 47.34533,1.06151 70.91463,-0.80065c0.31486,0.4048 0.95353,1.2144 1.26839,1.61919c-10.92106,0.3869 -21.84197,0.08994 -32.76303,0.26997c-9.24772,-0.07204 -18.50455,-0.16198 -27.74332,-0.027c-3.38247,-1.21439 -5.61334,1.25944 -8.15026,2.67176c-1.30448,-0.7917 -2.34795,-1.9251 -3.48151,-2.92368z" fill="#3c74b5"/><path d="M382.10265,120.10979c0.50368,-0.06294 1.50226,-0.19792 1.99715,-0.26087c1.07046,1.1425 2.93263,2.01504 2.62671,3.86811c0.06294,13.85369 0.027,27.70738 -0.08099,41.56122c-0.50368,-0.70176 -0.99857,-1.40337 -1.50226,-2.10513c-0.20687,-2.03309 -0.72876,-4.03024 -0.80065,-6.07228c0.99857,-8.70794 -1.06152,-17.39814 -0.28786,-26.13308c0.32396,-3.10355 2.339,-7.02581 -0.68371,-9.23878c-0.31486,-0.4048 -0.95353,-1.21439 -1.26839,-1.61919z" fill="#3f67ab"/><path d="M252.67851,130.92287c0.18003,-2.30306 0.54873,-6.89082 0.72861,-9.19373c0.25192,4.55197 0.13498,9.11289 0.18898,13.66471c0,3.53535 0.07189,7.07085 0.22477,10.5971c-0.44969,16.27353 -0.15303,32.54721 -0.21582,48.82074c-0.12604,14.76217 0.20687,29.53359 -0.17093,44.29577c-0.21582,-0.25192 -0.64777,-0.74665 -0.86359,-0.99857c0.29681,-35.73176 0.04505,-71.46351 0.10799,-107.18617z" fill="#76a3cd"/><path d="M304.78283,126.24501c1.63724,-2.32095 3.07656,-5.13665 6.45008,-4.52498c1.1334,0.99857 2.17702,2.13198 3.48151,2.92368c2.53678,-1.41232 4.76779,-3.88631 8.15026,-2.67176c9.23878,-0.13483 18.4956,-0.04489 27.74332,0.027c3.1216,0.72876 0.96263,2.79764 -1.05257,3.23839c-7.04385,0.44969 -14.1235,0.27892 -21.11337,1.36743c-0.53978,0.74665 -0.94458,1.56535 -1.20545,2.45594c-0.20687,0.50384 -0.61182,1.52031 -0.80975,2.02399l-0.61167,-0.44984c-2.64476,-3.66123 -4.16507,1.47526 -6.21621,3.04061c-0.43179,-1.47526 -0.84554,-2.95962 -1.43932,-4.38104c-4.35405,-1.43037 -8.75314,-2.86059 -13.377,-3.04956z" fill="#3577be"/><path d="M350.60785,121.99895c10.92106,-0.18003 21.84197,0.11694 32.76303,-0.26997c3.02272,2.21297 1.00767,6.13522 0.68371,9.23878c-0.71966,-0.06294 -2.16792,-0.18003 -2.89668,-0.24297c-0.51279,-1.43932 -0.87254,-2.96857 -1.77222,-4.22801c-5.94639,-0.15303 -11.90159,-0.17093 -17.84783,-0.03595c-3.02272,-1.08851 -5.4785,0.68371 -7.41256,2.56392c-8.95986,0.15303 -17.92882,0.17988 -26.88868,0.03595c0.26087,-0.89059 0.66567,-1.70928 1.20545,-2.45594c6.98986,-1.08851 14.06951,-0.91773 21.11337,-1.36743c2.01504,-0.4409 4.17417,-2.50978 1.05257,-3.23839z" fill="#3370b7"/><path d="M387.82397,121.73793c1.74523,2.03309 -0.25192,5.23553 0.76455,7.38556c-0.027,10.69614 -0.21597,21.39228 0.11693,32.07947l-0.98052,0.31486c-0.16183,-13.25991 -0.19792,-26.51998 0.09904,-39.77989z" fill="#b6d3f5"/><path d="M301.0585,127.0725c1.23244,-0.32381 2.47399,-0.58468 3.72433,-0.82749c4.62386,0.18883 9.02295,1.61919 13.377,3.04956c0.59378,1.42142 1.00752,2.90578 1.43932,4.38104c2.05114,-1.56535 3.57145,-6.70185 6.21621,-3.04061c-0.16183,4.03024 -0.26087,8.06033 -0.29681,12.09056c-0.56678,-1.87111 -3.62544,-2.91473 -3.74238,-0.22492c-0.03594,2.34795 -3.1756,2.68981 -4.12912,0.77365c-0.77365,-4.38104 -1.14251,-8.80698 -1.09746,-13.26901c-0.27891,0.18003 -0.82765,0.53963 -1.10656,0.71966l-0.66566,0.4139l-0.63867,-0.45879c-0.26982,-0.18882 -0.8096,-0.58483 -1.07046,-0.7826c-0.4227,-0.24297 -1.25959,-0.74665 -1.68229,-0.99857c-3.1665,-1.70034 -6.85488,-1.44842 -10.32729,-1.82622z" fill="#3676b5"/><path d="M354.12531,129.02476c1.93405,-1.88006 4.38999,-3.65228 7.41256,-2.56393c5.94639,-0.13483 11.90159,-0.11693 17.84783,0.03595c0.89969,1.25944 1.25944,2.78885 1.77222,4.22801c-0.3869,2.50978 -0.71056,5.04671 -0.90863,7.58349c-0.32396,-2.06009 -1.34938,-3.58039 -3.40052,-2.06009c-0.21582,-1.33133 -0.64777,-4.00309 -0.86359,-5.33457c-0.22492,-0.24297 -0.67477,-0.71056 -0.89969,-0.95353c-6.55791,-1.71823 -14.02446,-0.45879 -20.96033,-0.93563z" fill="#2e6fab"/><path d="M266.0734,129.00671c0.69266,-0.93563 1.46631,-1.93405 2.79764,-1.67319c10.73209,-0.18003 21.46417,0.28786 32.18731,-0.26087c3.47241,0.3778 7.16079,0.12588 10.32729,1.82622c-15.10418,0.35991 -30.20821,0.34186 -45.31224,0.10784z" fill="#4776ad"/><path d="M265.24576,129.97829c0.20687,-0.24297 0.62077,-0.72876 0.82765,-0.97158c15.10418,0.23387 30.20821,0.25192 45.31224,-0.10784c0.42269,0.25192 1.25959,0.7556 1.68229,0.99857c-15.65291,0.24297 -31.29672,0.12588 -46.94963,0.09889z" fill="#7c9fbf"/><path d="M327.23663,129.0607c8.95986,0.14393 17.92882,0.11693 26.88868,-0.03595c6.93587,0.47669 14.40242,-0.7826 20.96033,0.93563c-13.81774,0.16183 -27.62639,0 -41.44413,0.08099c-2.57287,-0.61167 -4.89383,0.26087 -7.21478,1.04347c0.19793,-0.50384 0.60288,-1.52031 0.80975,-2.02399z" fill="#5398cb"/><path d="M265.24576,129.97829l0.87254,0.0179l-0.09889,0.87269c-1.46631,12.45926 -0.62972,25.08961 -0.47684,37.60287c-0.3778,8.47422 -0.22492,16.94829 -0.25192,25.43147h-0.88164c-0.00895,-1.1965 -0.027,-2.393 -0.0361,-3.58039c0.00895,-19.81798 0.08099,-39.63596 -0.027,-59.45394c0.22492,-0.22492 0.67477,-0.67461 0.89969,-0.89059z" fill="#bcdbf5"/><path d="M266.1183,129.99618c15.65291,0.027 31.29672,0.14393 46.94963,-0.09889c0.26087,0.19793 0.80065,0.59378 1.07046,0.7826c-0.08099,0.77365 -0.24282,2.31201 -0.32381,3.07656c-1.00752,-1.74523 -2.25801,-3.44556 -4.55197,-2.7978c-0.58468,0.0361 -1.77223,0.11709 -2.366,0.16198c-13.61982,-0.39585 -27.25753,-0.0361 -40.87735,-0.25192z" fill="#cae6f9"/><path d="M315.44287,130.72494c0.27891,-0.18003 0.82765,-0.53963 1.10656,-0.71966c-0.04505,4.46203 0.32381,8.88797 1.09746,13.26901c0.95353,1.91616 4.09318,1.5743 4.12912,-0.77365c0.11693,-2.68981 3.1756,-1.64619 3.74238,0.22492c-0.00895,10.52521 0.26087,21.05937 -0.12604,31.58458c-0.51279,-4.47098 -0.83659,-8.95091 -0.97158,-13.43979c-0.39585,-1.42142 -1.76328,-1.29539 -2.26696,-0.01805c-0.39585,4.7138 0.41375,9.57153 -1.07956,14.16855c1.91616,7.43955 -7.4846,1.91616 -3.60724,-1.79907c-0.57573,-9.95843 1.42142,-20.21383 -1.5473,-29.9205c-0.21582,-4.19207 -0.21597,-8.38429 -0.47684,-12.57635z" fill="#3170ab"/><path d="M326.42688,131.08469c2.32096,-0.7826 4.64191,-1.65529 7.21478,-1.04347c13.81774,-0.08099 27.62639,0.08099 41.44413,-0.08099c0.22492,0.24297 0.67476,0.71056 0.89969,0.95353c-0.03594,18.01876 -0.12603,36.04662 0.0179,54.07432l-0.8096,0.09904l-0.97158,-0.04505c-0.35991,-8.15921 0.10783,-16.30053 0.74665,-24.42379c-0.47669,-5.39751 -1.41232,-10.84902 -0.12588,-16.19254c-0.4048,-4.19207 -0.8187,-8.37519 -0.18003,-12.57635c-6.50407,0.28786 -12.954,-1.62829 -19.42213,-0.16198c-8.645,0.09904 -17.36204,0.68371 -25.9711,-0.34186c-0.63882,0.63867 -1.81727,1.1874 -1.65529,2.25801c-0.66566,7.24163 1.45737,14.42942 -0.12603,21.6172c-0.33291,9.88654 -0.05399,19.78203 -0.11694,29.66843l-0.89059,0.027c-0.08099,-17.94672 0.06294,-35.89358 -0.05399,-53.8315z" fill="#8ad2fa"/><path d="M263.41969,131.76841c0.22492,-0.22492 0.69266,-0.67477 0.92653,-0.89954c0.10799,19.81798 0.03595,39.63596 0.027,59.45394l-0.89954,-0.08099c-0.00895,-0.47669 -0.03594,-1.42142 -0.04505,-1.89811c0.10799,-18.86445 0.10799,-37.7198 -0.00895,-56.57515z" fill="#7ca9d1"/><path d="M266.01941,130.86887c13.61982,0.21597 27.25753,-0.14393 40.87735,0.25192c-3.49046,1.33133 -7.34067,1.28644 -10.79503,2.72575c-7.27772,-0.35081 -14.52845,-2.02414 -21.83302,-1.26854c-2.3839,0.07204 -4.7499,-0.59362 -7.12469,-0.66566c-0.14393,11.37985 -0.04505,22.76865 -0.04505,34.15746c-0.027,4.75884 -0.01805,9.52679 0.00895,14.29458l-0.73771,0.22492c-0.56678,-4.00324 0.45879,-8.22215 -0.82765,-12.11756c-0.15303,-12.51326 -0.98947,-25.14345 0.47684,-37.60287z" fill="#f0fcfe"/><path d="M306.89676,131.12079c0.59377,-0.04489 1.78117,-0.12603 2.366,-0.16198l0.36885,0.61167c1.32238,2.64476 3.02256,6.79179 0.30591,8.92392c-1.85321,1.50226 -2.95067,3.66138 -4.38104,5.52355c-3.02272,-1.06151 -5.95519,-0.74665 -7.4306,2.41089c-3.63424,-0.11693 -3.86826,3.71538 -6.33315,5.40661c-2.56377,2.10498 -2.12303,6.76479 -5.66733,7.8803c-4.76779,3.65229 -7.0528,9.42775 -9.58973,14.69043c-1.07046,0.64777 -2.50083,2.74365 -3.60724,1.05241c-2.7887,-1.70034 -3.36442,2.7438 -5.82036,2.90578c-0.027,-4.76779 -0.03594,-9.53574 -0.00895,-14.29458c1.43037,-0.0361 2.86074,-0.04489 4.27306,-0.18882c-0.61182,-4.08408 1.1334,-5.97324 5.26253,-5.67643c4.19207,-3.13965 5.88345,-8.24915 7.82645,-12.88211c2.15003,-3.4903 4.62386,-6.77404 6.61206,-10.36338c0.86359,-2.05099 3.70628,-1.41232 5.02866,-3.1125c3.45436,-1.43932 7.30472,-1.39442 10.79503,-2.72575z" fill="#f5f6f9"/><path d="M309.26276,130.95881c2.29396,-0.64777 3.54445,1.05257 4.55197,2.7978c-0.06294,12.18945 0.35096,24.388 -0.11694,36.56835c-0.55768,3.44541 -0.68371,6.97181 -1.44842,10.39023c-0.22492,-6.43203 -0.17988,-12.85512 -0.19793,-19.2782c0,-2.61792 0.00895,-5.20854 -0.12603,-7.81736c0.01805,-6.89082 0.45879,-13.8088 0.0179,-20.69962c-0.74666,-0.48579 -1.52031,-0.93548 -2.31186,-1.34938z" fill="#e1eefd"/><path d="M314.13854,130.6799l0.63867,0.45879c-0.00895,16.72337 -0.027,33.4469 0,50.17027c-0.04505,5.99129 0.027,11.99153 -0.01805,17.99176h-0.87254c-0.03594,-9.66162 0.05399,-19.32309 -0.18883,-28.97576c0.46774,-12.18035 0.05399,-24.3789 0.11694,-36.56835c0.08099,-0.76455 0.24282,-2.30306 0.32381,-3.07656z" fill="#9cbcdf"/><path d="M314.77721,131.13869l0.66566,-0.4139c0.26087,4.19207 0.26087,8.38429 0.47684,12.57635c-0.28786,6.58506 -0.38675,13.18802 -0.00895,19.78203c-0.26087,6.06333 -0.23387,12.14456 -0.25192,18.22578h-0.88164c-0.027,-16.72337 -0.00895,-33.4469 0,-50.17027z" fill="#5a87b4"/><path d="M325.81521,130.635l0.61167,0.44984c0.11693,17.93792 -0.027,35.88479 0.05399,53.8315l-0.01805,0.88164l-0.88164,0.02684c-0.04505,-3.85021 -0.03594,-7.68252 -0.18882,-11.51469c0.3869,-10.52521 0.11694,-21.05937 0.12604,-31.58458c0.03594,-4.03024 0.13498,-8.06033 0.29681,-12.09056z" fill="#69afdd"/><path d="M329.26972,131.34556c8.60906,1.02557 17.3261,0.44089 25.9711,0.34186c6.46813,-1.46631 12.91806,0.44984 19.42213,0.16198c-0.63882,4.20102 -0.22477,8.38428 0.18003,12.57635c-1.28644,5.34367 -0.3508,10.79503 0.12588,16.19254c-0.63882,8.12327 -1.10656,16.26458 -0.74665,24.42379c-15.61681,-0.29696 -31.23378,-0.04489 -46.85059,-0.15288c0.06294,-9.88654 -0.21597,-19.78203 0.11694,-29.66843c1.58325,-7.18779 -0.53963,-14.37542 0.12603,-21.6172c-0.16183,-1.07046 1.01662,-1.61919 1.65529,-2.25801z" fill="#90ddfb"/><path d="M375.98533,130.91377c0.21582,1.33133 0.64777,4.00309 0.86359,5.33457c0.10799,15.99477 -0.29696,31.99848 0.24282,47.98415l-0.20687,0.77365l-0.88164,-0.01805c-0.14393,-18.02786 -0.05399,-36.05556 -0.0179,-54.07432z" fill="#4b8dbf"/><path d="M380.24943,138.30843c0.19793,-2.53678 0.52173,-5.07371 0.90863,-7.58349c0.72876,0.06294 2.17702,0.18003 2.89668,0.24297c-0.77365,8.73494 1.28644,17.42514 0.28786,26.13308c0.07204,2.04204 0.59377,4.03919 0.80065,6.07228c-0.4048,1.29538 -0.87269,2.57272 -1.27749,3.87721c-0.83659,-0.3599 -1.66424,-0.73771 -2.48278,-1.11551c0.01805,-9.22983 -1.43037,-18.38761 -1.13356,-27.62639z" fill="#2f63af"/><path d="M262.41202,139.72985c0.59378,-2.52783 -0.73756,-5.9282 1.00767,-7.96129c0.11694,18.85535 0.11694,37.71086 0.00895,56.57515c-0.22492,0.25192 -0.68371,0.7647 -0.91758,1.02557l-0.84554,0.10784c0.027,-4.30005 0.03594,-8.59101 -0.12588,-12.88211c-0.32396,-12.30639 1.34028,-24.56788 0.87254,-36.86531z" fill="#3d75af"/><path d="M267.14387,131.91234c2.37495,0.07204 4.74095,0.73771 7.12469,0.66566c7.30472,-0.7556 14.55545,0.91774 21.83302,1.26854c-1.32238,1.70034 -4.16507,1.06151 -5.02866,3.1125c-1.98805,3.58934 -4.46203,6.87293 -6.61206,10.36338c-1.943,4.63281 -3.63439,9.74246 -7.82645,12.88211c-4.12912,-0.29696 -5.87435,1.5922 -5.26253,5.67643c-1.41232,0.14393 -2.84269,0.15288 -4.27306,0.18883c0,-11.3888 -0.09904,-22.7776 0.04505,-34.15746z" fill="#fafcfa"/><path d="M309.63161,131.57048c0.79155,0.4139 1.5652,0.86359 2.31186,1.34938c0.44089,6.89082 0,13.8088 -0.0179,20.69962c-0.56678,-1.61025 -1.00752,-3.27448 -1.76328,-4.81284c-1.39427,0.99857 -2.47383,2.34795 -3.51745,3.67928c-1.63724,2.59092 -6.2881,-0.50369 -6.97181,2.84269c-1.35833,5.32547 -8.16831,7.46655 -8.92391,13.11598c-2.12303,3.39142 -9.13974,4.05708 -6.98986,9.15778c-3.15755,3.81426 -11.59567,2.98662 -9.71546,10.32729c-3.1665,0.88149 -6.59401,2.43789 -6.79194,6.17116c-0.14393,-4.51587 0.05399,-9.07695 -0.88164,-13.51198l0.73771,-0.22492c2.45579,-0.16183 3.03167,-4.60596 5.82036,-2.90578c1.10641,1.69124 2.53678,-0.4048 3.60724,-1.05241c2.53678,-5.26253 4.82194,-11.038 9.58973,-14.69043c3.54445,-1.11551 3.10356,-5.77531 5.66733,-7.8803c2.46489,-1.69124 2.69891,-5.52355 6.33315,-5.40661c1.47541,-3.15755 4.40804,-3.47241 7.4306,-2.41089c1.43037,-1.86216 2.52783,-4.02129 4.38104,-5.52355c2.71665,-2.13213 1.01662,-6.27915 -0.30591,-8.92391z" fill="#f1f3f5"/><path d="M376.84892,136.24834c2.05114,-1.52031 3.07656,0 3.40052,2.06009c-0.29681,9.23877 1.15145,18.39656 1.13356,27.62639c-0.42269,-0.14393 -1.25944,-0.43179 -1.67319,-0.57573c-3.54445,5.66733 -0.74681,12.76518 -2.61792,18.8734c-0.53978,-15.98567 -0.13483,-31.98938 -0.24282,-47.98415z" fill="#2968a2"/><path d="M259.74026,154.99585c-0.86359,-5.20854 0.70176,-10.48927 2.67176,-15.26616c0.46774,12.29744 -1.1965,24.55893 -0.87254,36.86531c-1.61025,3.61634 -3.1756,7.57454 -2.16808,11.60462c0.81855,2.49188 -0.15303,5.00181 -0.60272,7.4576c-1.37638,0.14393 -2.28501,-1.1695 -3.35547,-1.80817c0.01805,-12.5853 -0.14393,-25.14345 1.05257,-37.60287c1.10641,-0.3869 2.19507,-0.7826 3.27448,-1.25034z" fill="#3a78b9"/><path d="M315.91971,143.30114c2.96872,9.70652 0.97158,19.96206 1.5473,29.9205c-3.87721,3.71538 5.52355,9.23878 3.60724,1.79907c1.49331,-4.59702 0.68371,-9.45475 1.07956,-14.16855c0.50369,-1.27749 1.87111,-1.40337 2.26696,0.01805c0.13483,4.48888 0.45879,8.96881 0.97158,13.43979c0.15303,3.83231 0.14393,7.66447 0.18883,11.51469c-0.00895,0.63867 -0.04489,1.92526 -0.05399,2.57287c-2.03309,0.19793 -4.96572,0.14393 -5.73937,2.48278c-1.03452,1.5473 0.09009,3.33758 0.33291,4.95677c-3.5804,-4.00324 -1.53836,-10.78608 -3.36442,-15.61696c-0.65672,-5.66733 0.80065,-11.61372 -0.84554,-17.13712c-0.3778,-6.59401 -0.27892,-13.19712 0.00895,-19.78203z" fill="#2d6ba5"/><path d="M253.82101,145.99095c1.25049,3.31058 2.11408,6.75599 2.64476,10.2554c-1.1965,12.45927 -1.03452,25.01757 -1.05257,37.60287l-0.01805,0.89059c-0.44969,0.0179 -1.34043,0.05399 -1.79012,0.07189c0.06294,-16.27353 -0.23387,-32.54721 0.21582,-48.82074z" fill="#417bb4"/><path d="M306.64484,152.48607c1.04347,-1.33133 2.12303,-2.68071 3.51745,-3.67928c0.7556,1.53835 1.1965,3.20259 1.76328,4.81284c0.13483,2.60882 0.12603,5.19959 0.12603,7.81736c-1.06152,2.48278 -3.79637,0.55783 -5.74847,1.37637c-5.68538,-1.01662 -6.35104,4.57002 -8.23125,8.08732c-4.95677,2.25801 -7.21463,7.61048 -9.31977,12.24329c0.09904,2.20402 -2.55482,2.25801 -3.44541,3.78727c-1.5743,3.35547 -5.23568,4.96572 -6.98091,8.22215c-0.85464,2.71665 -1.02542,6.31525 -3.39142,8.31224c-1.86216,0.30576 -4.47098,0.54873 -4.30005,3.08551c0.06294,2.53678 -1.84412,-2.7438 -1.68229,-0.10799c-0.06294,1.50226 -0.48579,2.90563 -1.66424,3.9042c-0.17093,-5.41556 -0.27876,-10.84007 -0.03595,-16.24653c0.19793,-3.73327 3.62544,-5.28968 6.79194,-6.17117c-1.88006,-7.34067 6.55791,-6.51302 9.71546,-10.32729c-2.15003,-5.1007 4.86683,-5.76637 6.98986,-9.15778c0.7556,-5.64943 7.56559,-7.79036 8.92391,-13.11598c0.68371,-3.34637 5.33457,-0.25177 6.97181,-2.84269z" fill="#eeeff0"/><path d="M306.30314,162.81336c1.9521,-0.8187 4.68695,1.10641 5.74847,-1.37638c0.01805,6.42308 -0.027,12.84617 0.19793,19.2782c-0.85464,-1.04347 -1.66424,-2.12303 -2.60882,-3.07656c-0.09904,1.48436 -0.21582,2.99557 -2.05099,2.25801c1.87111,8.69004 -1.44842,0.34186 -4.64191,2.33885c0.28786,2.34795 3.76027,0.14393 2.68981,2.49188c-3.5264,-0.0179 -7.02581,0.4048 -10.42632,1.33133c-2.51888,3.43646 -3.5443,8.2493 -7.61048,10.30029c-1.5564,0.8096 -3.02272,1.81727 -4.15612,3.16665c-0.8096,1.97015 0.68371,3.60724 1.5473,5.22658c-0.4409,2.29396 -2.21297,3.85916 -4.51587,4.07513c-3.32848,2.99572 -2.86074,8.31224 -5.62244,11.78465c-3.1216,0.0179 -6.44098,1.5473 -9.53559,0.39585c0.01805,-0.42269 0.06294,-1.27749 0.08099,-1.70928c0.45879,-3.03151 1.05241,-6.00934 1.88901,-8.95091c1.17845,-0.99857 1.6013,-2.40194 1.66424,-3.9042c-0.16183,-2.63581 1.74523,2.64476 1.68229,0.10799c-0.17093,-2.53678 2.43789,-2.77975 4.30005,-3.08551c2.366,-1.99715 2.53678,-5.59559 3.39142,-8.31224c1.74523,-3.25659 5.40661,-4.86683 6.98091,-8.22215c0.89059,-1.52926 3.54445,-1.58325 3.44541,-3.78727c2.10513,-4.63281 4.36299,-9.98543 9.31976,-12.24329c1.88006,-3.5173 2.54588,-9.10394 8.23125,-8.08732z" fill="#e9ebee"/><path d="M315.91077,163.08318c1.64619,5.5234 0.18882,11.46979 0.84554,17.13712c-0.70176,17.16427 1.51136,34.26529 1.5564,51.42061c-0.95353,3.73327 -5.62259,2.49188 -8.6632,3.06761c-6.36909,1.25944 -12.76518,-0.44074 -19.16126,-0.29681c-7.54754,-0.22492 -15.59892,0.50368 -22.75061,-2.47399c1.21455,-0.04489 2.43789,-0.05399 3.66138,-0.04505c8.70809,1.37638 17.57802,0.00895 26.27701,1.48436c6.15327,-0.21597 13.24202,1.34953 18.83746,-1.86201c-0.07204,-4.20102 0.74666,-8.57311 -0.56678,-12.65734c-0.59378,-12.50431 -0.13498,-25.03547 -0.28786,-37.54888c0.01805,-6.08123 -0.00895,-12.16245 0.25192,-18.22578z" fill="#2b5d98"/><path d="M385.14326,163.17311c0.50368,0.70176 0.99857,1.40337 1.50226,2.10513c0.21582,11.64072 0.027,23.28129 0.08994,34.92201l-0.027,0.89059h-0.89059c-0.3508,-4.85773 -0.85464,-9.70652 -1.09761,-14.58245c0.49474,-6.51302 0.26997,-13.02604 -0.85449,-19.45823c0.4048,-1.30448 0.87269,-2.58182 1.27749,-3.87721z" fill="#3a619a"/><path d="M379.70965,165.35909c0.4139,0.14393 1.25049,0.43179 1.67319,0.57573c0.81854,0.3778 1.64619,0.7556 2.48278,1.11551c1.12446,6.43203 1.34938,12.94521 0.85449,19.45823c-0.62972,5.23553 -0.19793,10.68704 -2.22192,15.66186c-1.11551,-2.57272 -1.70018,-5.5234 -3.65229,-7.63748c-1.943,10.78608 -0.7647,21.78813 -1.11551,32.664c-0.07204,2.37495 -1.65529,4.83089 -4.23711,4.83089c-1.63724,-0.08099 -4.91173,-0.25192 -6.54897,-0.33291v-0.88149c2.74365,-0.70176 6.72899,1.24139 8.87902,-1.1516c0.28786,-6.76494 -0.04505,-13.53883 0.28786,-20.29467c1.33133,-8.06033 0.50368,-16.24653 0.77365,-24.36085l0.20687,-0.77365c1.87111,-6.10822 -0.92653,-13.20592 2.61792,-18.8734z" fill="#275e9f"/><path d="M265.54272,168.47174c1.28644,3.89526 0.26087,8.11432 0.82765,12.11756c0.93563,4.43504 0.73771,8.99596 0.88164,13.51198c-0.24282,5.40646 -0.13498,10.83097 0.03594,16.24653c-0.83659,2.94157 -1.43022,5.9194 -1.88901,8.95091c-0.12603,-8.46512 -0.09904,-16.93025 -0.10799,-25.39537c0.027,-8.48317 -0.12588,-16.95739 0.25192,-25.43147z" fill="#e8f0fa"/><path d="M312.24938,180.71518c0.76455,-3.41842 0.89059,-6.94482 1.44842,-10.39023c0.24282,9.65267 0.15288,19.31414 0.18883,28.97576c-0.027,1.73613 -0.06294,3.47241 -0.14393,5.20854c-0.52173,1.01662 -1.02557,2.05114 -1.5473,3.06761c-0.03594,-0.71071 -0.08994,-2.13198 -0.11693,-2.84269c-0.03595,-2.65371 -0.0091,-5.28953 -0.10799,-7.93429c0.07204,-5.36157 0.04504,-10.73224 0.27891,-16.0847z" fill="#d9e4f6"/><path d="M259.3714,188.19978c-1.00752,-4.03024 0.55783,-7.98828 2.16808,-11.60462c0.16183,4.2911 0.15288,8.58206 0.12588,12.88211c-1.48436,13.99762 -1.80817,28.13917 -1.78117,42.22688c0.07204,2.65371 -2.3839,4.35389 -4.39894,5.61334c-0.23387,-14.19555 -0.01805,-28.38199 -0.08994,-42.57754l0.01805,-0.89059c1.07046,0.63867 1.9791,1.9521 3.35547,1.80817c0.44969,-2.45579 1.42127,-4.96572 0.60272,-7.4576z" fill="#356fb3"/><path d="M309.64056,177.63863c0.94458,0.95353 1.75418,2.03309 2.60882,3.07656c-0.23387,5.35247 -0.20687,10.72314 -0.27892,16.0847c-1.14251,-1.14251 -2.17702,-2.3839 -3.22944,-3.60739c-0.89059,3.54445 -4.70485,4.17417 -7.08875,6.44113c-3.64334,1.66424 -8.01528,2.27606 -10.84917,5.36157c-1.82622,4.30005 -2.62687,9.56258 -7.35871,11.65862c-0.14393,2.09603 0.89059,4.39894 -1.00752,6.00024c-3.77832,2.53678 -8.83398,2.3569 -13.28706,2.95067c-0.08994,0.4139 -0.26087,1.24139 -0.3508,1.65529c-1.15145,0.70176 -2.37495,0.66567 -3.53535,0c0.00895,-1.56535 0.03595,-4.6868 0.05399,-6.25216c3.09461,1.15145 6.41398,-0.3778 9.53559,-0.39585c2.76185,-3.47241 2.29396,-8.78908 5.62243,-11.78465c2.30291,-0.21597 4.07513,-1.78117 4.51588,-4.07513c-0.86359,-1.61919 -2.3569,-3.25644 -1.5473,-5.22658c1.1334,-1.34938 2.59987,-2.35705 4.15612,-3.16665c4.06618,-2.05099 5.0916,-6.86383 7.61048,-10.30029c3.40037,-0.92653 6.89992,-1.34938 10.42633,-1.33133c1.07046,-2.34795 -2.40195,-0.14393 -2.68981,-2.49188c3.19349,-1.99715 6.51302,6.35119 4.64191,-2.33885c1.83517,0.73756 1.9521,-0.77365 2.05099,-2.25801z" fill="#e6e7ec"/><path d="M316.75631,180.22045c1.82622,4.83074 -0.21582,11.61372 3.36442,15.61697c2.71665,5.18154 1.89811,11.32586 2.59077,16.96619c-0.22492,5.70342 1.61919,11.20892 1.49331,16.8943c0.89059,2.09603 3.1756,2.11408 5.13665,2.22207c-1.58325,0.48579 -3.22049,0.84569 -4.6959,1.61025c0.53068,0.66567 1.1786,1.2144 1.94315,1.64619c-0.95353,0.95353 -1.91616,1.91616 -3.08566,2.60882c-7.49355,0.48579 -15.04109,-0.26997 -22.48064,0.84569c-9.82345,-0.83659 -19.73699,3.00467 -29.46155,0.19792c0.55768,-1.07046 2.09603,-1.97015 1.71823,-3.31953c-2.01504,-1.08851 -5.69448,-0.15303 -6.38714,-2.76185l0.027,-0.85464l0.81855,0.04505c7.15169,2.97767 15.20307,2.24907 22.75061,2.47399c6.39609,-0.14393 12.79217,1.55625 19.16126,0.29681c3.04061,-0.57573 7.70967,0.66567 8.6632,-3.06761c-0.04505,-17.15517 -2.25801,-34.25634 -1.5564,-51.42061z" fill="#2960a2"/><path d="M314.77721,181.30896h0.88164c0.15303,12.51326 -0.30576,25.04456 0.28786,37.54888c0.26087,3.73327 -0.13498,7.0889 -1.1965,10.04852c0.03594,-9.86849 0.027,-19.73714 0.00895,-29.60564c0.04505,-6.00024 -0.027,-12.00047 0.01805,-17.99176z" fill="#557caa"/><path d="M326.48087,184.9162l0.89059,-0.027c15.61681,0.10799 31.23378,-0.14393 46.85059,0.15288l0.97158,0.04505c-16.16554,1.6013 -32.50217,0.33291 -48.7308,0.71071z" fill="#74c6ef"/><path d="M375.19363,185.08713l0.8096,-0.09904c-0.06294,2.69876 -0.07189,5.42451 -0.11693,8.13237c-1.74523,-2.18597 -3.25644,-5.71237 -7.13364,-3.67928c-13.7727,0.31486 -27.48246,-1.83532 -41.24621,-0.80975c-1.45737,3.74237 -0.86359,7.90744 -1.67319,11.8027c-0.16183,-4.02114 -0.26087,-8.02423 -0.30591,-12.03642c0.00895,-0.64777 0.04489,-1.93421 0.05399,-2.57287l0.88164,-0.02684c16.22864,-0.3778 32.56511,0.89059 48.7308,-0.71071z" fill="#50a2d7"/><path d="M376.00322,184.98824l0.88164,0.01805c-0.26981,8.11432 0.55783,16.30053 -0.77365,24.36085c-0.03595,-0.52173 -0.09889,-1.5473 -0.13483,-2.06009c-0.03595,-3.22049 -0.0091,-6.42308 -0.11709,-9.63447c0.01805,-1.52031 0.04505,-3.04061 0.027,-4.55197c0.04505,-2.70786 0.05399,-5.43361 0.11693,-8.13237z" fill="#3575b5"/><path d="M382.49835,202.17041c2.02414,-4.97467 1.5922,-10.42617 2.22192,-15.66186c0.24282,4.87578 0.74681,9.72456 1.09761,14.58245c-1.1695,5.8654 -0.79155,11.85654 -1.01662,17.79384c-0.91758,1.5743 -1.68229,3.22049 -2.41089,4.88473c-0.07204,-7.19674 -0.45894,-14.41152 0.10784,-21.59915z" fill="#2e5694"/><path d="M262.51106,189.36928c0.23387,-0.26087 0.69266,-0.77365 0.91758,-1.02557c0.00895,0.47669 0.03595,1.42142 0.04505,1.89811c0.11694,12.5853 -0.14393,25.1706 0.06294,37.7468c0.18003,0.28786 0.53978,0.86359 0.71966,1.14251c0.21582,0.23387 0.65672,0.70176 0.88164,0.93563c0.21582,0.21597 0.66582,0.65672 0.88164,0.88149c0.22492,0.23387 0.67461,0.70161 0.89953,0.94458l-0.027,0.85464c-1.96105,-0.0179 -3.9312,-0.36885 -4.97482,-2.22192c-2.20402,-13.67381 1.32238,-27.43756 0.59377,-41.15627z" fill="#3a68a0"/><path d="M319.78797,190.88049c0.77365,-2.33885 3.70628,-2.28501 5.73937,-2.48278c0.04505,4.01219 0.14393,8.01528 0.30591,12.03642c-0.21582,2.27606 -0.26997,4.56092 -0.17093,6.84593c0.03594,0.4139 0.09889,1.23229 0.13483,1.64619c0.48579,6.91782 -1.66424,14.5283 0.4409,21.16736l0.39585,0.65672c13.43979,0.17093 26.87078,-0.08099 40.31057,0.06294v0.88149c-12.54026,0.06294 -25.07156,-0.23387 -37.60287,0.22492c-1.96105,-0.10799 -4.24621,-0.12604 -5.13665,-2.22207c0.12604,-5.68538 -1.71823,-11.19088 -1.49331,-16.8943c-0.69266,-5.64033 0.12604,-11.78465 -2.59077,-16.96619c-0.24282,-1.61919 -1.36743,-3.40947 -0.33291,-4.95677z" fill="#2566ac"/><path d="M327.50644,188.63158c13.76375,-1.02557 27.47351,1.12461 41.24621,0.80975c3.87721,-2.03309 5.38841,1.49331 7.13364,3.67928c0.01805,1.51136 -0.00895,3.03167 -0.027,4.55197c-0.8096,-1.52926 -1.24139,-3.49046 -2.92368,-4.3181c-14.5644,-3.16665 -29.63263,-3.23854 -44.48474,-2.94157c-2.393,1.85322 -0.68371,5.41556 -1.1334,8.03333c0.09904,3.02272 -0.4227,6.23411 0.62972,9.15779l0.24282,0.80065l-0.88164,0.027c-0.4139,-0.28786 -1.23244,-0.86359 -1.64619,-1.15145c-0.09904,-2.28501 -0.04489,-4.56987 0.17093,-6.84593c0.8096,-3.89526 0.21582,-8.06033 1.67319,-11.8027z" fill="#4fa2e2"/><path d="M261.66536,189.47712l0.84554,-0.10783c0.72876,13.71886 -2.79779,27.48245 -0.59377,41.15627c1.04347,1.85321 3.01362,2.20402 4.97482,2.22192c0.69266,2.60882 4.37194,1.67334 6.38714,2.76185c0.3778,1.34938 -1.16055,2.24891 -1.71823,3.31953c-2.43789,0.52173 -4.90278,0.89043 -7.35871,1.28628c-1.943,-1.30448 -8.60011,0.72876 -8.71704,-2.79764c2.01504,-1.25944 4.47098,-2.95962 4.39894,-5.61334c-0.027,-14.08756 0.29681,-28.22926 1.78117,-42.22688z" fill="#3468ab"/><path d="M263.47353,190.24182l0.89954,0.08099c0.00895,1.1874 0.027,2.3839 0.0361,3.5804c-0.10799,11.73976 0.14393,23.48831 -0.15303,35.22792c-0.18003,-0.27876 -0.53978,-0.85464 -0.71966,-1.14251c-0.20687,-12.57635 0.05399,-25.1615 -0.06294,-37.7468z" fill="#7b9cc6"/><path d="M328.45102,190.41275c14.85226,-0.29696 29.9205,-0.22492 44.48474,2.94157c1.68213,0.82765 2.11408,2.78885 2.92368,4.3181c0.10799,3.21154 0.08099,6.41398 0.11709,9.63447c-0.24282,0.25192 -0.72876,0.74665 -0.97158,0.99857c-15.60786,0.04489 -31.21573,-0.12588 -46.81465,0.09904l-0.24282,-0.80065c3.86826,-1.40337 8.01528,0.07189 12.00062,-0.24297c10.69614,-0.08099 21.47327,0.43195 32.12436,-0.25177c4.66891,-0.71071 0.82765,-7.4937 2.0061,-10.36338c-5.20869,-3.41842 -12.12651,-1.1965 -17.93792,-2.01504c-7.64658,-0.90848 -15.36505,-1.13356 -23.02952,-0.35991c-1.96105,1.31343 -4.06618,2.43804 -5.79336,4.07528c0.44969,-2.61792 -1.25944,-6.18027 1.1334,-8.03333z" fill="#51a4ed"/><path d="M308.74103,193.1925c1.05241,1.22349 2.08693,2.46489 3.22944,3.60739c0.09904,2.64476 0.07204,5.28058 0.10799,7.93429c-2.3299,-0.31486 -4.66891,-0.72876 -7.00791,-0.85464c-2.47399,3.04061 -2.41999,7.06175 -4.01219,10.48017c-1.5743,0.90848 -3.28343,1.5473 -4.91172,2.34795c-1.13341,1.90706 1.34938,1.37638 2.49188,1.70913c-3.03151,2.41089 -4.39909,6.40519 -8.2942,7.67358c-7.12469,0.7556 -14.60034,-0.90864 -21.54516,1.1695c0.08994,-0.4139 0.26087,-1.24139 0.3508,-1.65529c4.45308,-0.59362 9.50874,-0.41375 13.28706,-2.95068c1.89811,-1.6013 0.86359,-3.9042 1.00752,-6.00024c4.73185,-2.09603 5.5325,-7.35856 7.35871,-11.65862c2.83374,-3.08551 7.20568,-3.69733 10.84917,-5.36157c2.3839,-2.26696 6.19816,-2.89668 7.08875,-6.44113z" fill="#e1e2e7"/><path d="M264.40916,193.90321h0.88164c0.00895,8.46512 -0.01805,16.93025 0.10799,25.39537c-0.01805,0.43179 -0.06294,1.28644 -0.08099,1.70928c-0.01805,1.56535 -0.04505,4.6868 -0.05399,6.25216c0.20687,0.92653 0.45879,1.84427 0.7556,2.75275l-0.88164,0.05399c-0.22492,-0.23387 -0.66566,-0.70176 -0.88164,-0.93563c0.29681,-11.73976 0.04505,-23.48831 0.15303,-35.22792z" fill="#b6cdeb"/><path d="M333.11083,194.37095c7.66447,-0.77365 15.38294,-0.54873 23.02952,0.35991c5.81141,0.8187 12.72923,-1.40337 17.93792,2.01504c-1.17845,2.86969 2.66281,9.65267 -2.0061,10.36338c-10.65109,0.68371 -21.42822,0.17093 -32.12436,0.25177c-3.98519,0.31486 -8.13237,-1.16055 -12.00062,0.24297c-1.05242,-2.92368 -0.53068,-6.13522 -0.62972,-9.15778c1.72718,-1.63724 3.83231,-2.76185 5.79336,-4.07528z" fill="#55adf7"/><path d="M253.60504,194.81169c0.44969,-0.0179 1.34043,-0.05399 1.79012,-0.07189c0.07204,14.19555 -0.14393,28.38199 0.08994,42.57753c0.11693,3.5264 6.77404,1.49331 8.71704,2.79764c10.87602,1.53835 21.98606,-0.51278 32.81718,1.23244c-13.63787,0.53978 -27.28468,-0.03595 -40.9224,0.36885c-0.92668,-0.82765 -1.83517,-1.68229 -2.66281,-2.60882c0.3778,-14.76217 0.04505,-29.53359 0.17093,-44.29577z" fill="#4070a8"/><path d="M378.84606,194.53293c1.9521,2.11408 2.53678,5.06461 3.65229,7.63748c-0.56678,7.18779 -0.17988,14.40242 -0.10784,21.59915c-0.88164,4.48888 0.26982,9.96738 -2.84269,13.59282c-1.1334,-1.11551 -1.34938,-3.03151 -2.72575,-3.83216c-2.91473,1.1695 -5.51445,3.47241 -8.97791,2.55483c-8.51912,-0.12603 -17.21811,1.32238 -25.30543,3.5804c-0.26981,0.23387 -0.8187,0.71071 -1.08851,0.94458c-2.64476,0.027 -5.27163,0.10783 -7.90745,0.08994c-0.94458,-1.75418 0.47684,-3.31953 1.1695,-4.85773c12.97205,-0.7826 25.99809,-1.30449 38.78132,-3.81427c2.58182,0 4.16522,-2.45594 4.23711,-4.83089c0.3508,-10.87602 -0.82765,-21.87792 1.11551,-32.664z" fill="#235692"/><path d="M313.88662,199.30072h0.87254c0.01805,9.8685 0.027,19.73714 -0.00895,29.60564l-0.66566,0.3417c-0.29681,-8.24035 -0.19793,-16.4895 -0.34186,-24.73865c0.08099,-1.73613 0.11694,-3.47241 0.14393,-5.20854z" fill="#96b0d3"/><path d="M386.73546,200.20026l0.89059,-0.0091c0.027,4.80374 -0.0091,9.59868 0.06294,14.40257c-0.01805,7.8354 -0.27876,15.6887 0.13498,23.51516l-0.08099,0.71071c-0.23387,0.25192 -0.70161,0.7556 -0.93548,1.00752l-0.83659,0.04505c0.027,-0.4139 0.08099,-1.25049 0.10784,-1.66424c1.37637,-12.32428 0.36885,-24.7567 0.62972,-37.11708z" fill="#7189aa"/><path d="M385.81788,201.09084h0.89059c-0.26087,12.36038 0.74666,24.79265 -0.62972,37.11708c-1.84427,-6.27005 -0.91758,-12.89106 -1.27749,-19.32324c0.22492,-5.93729 -0.15303,-11.92858 1.01662,-17.79384z" fill="#3a5789"/><path d="M305.07069,203.87954c2.339,0.12603 4.67801,0.53978 7.00791,0.85464c0.027,0.71071 0.08099,2.13198 0.11693,2.84269c-0.3508,5.84736 0.34186,11.75765 -0.33291,17.58696c-1.66424,3.36442 -5.18154,0.71966 -7.8894,0.52173c-3.23854,0.15303 -6.44113,0.67461 -9.61658,1.28644c-1.29539,-0.46774 -2.65386,-0.71071 -4.01219,-0.88164c3.89525,-1.26839 5.26268,-5.26268 8.29435,-7.67357c-1.1425,-0.33276 -3.62544,0.19792 -2.49188,-1.70913c1.62829,-0.80065 3.33742,-1.43947 4.91173,-2.34795c1.5922,-3.41842 1.53836,-7.43955 4.01219,-10.48017z" fill="#dbdee3"/><path d="M312.19539,207.57687c0.52173,-1.01662 1.02557,-2.05114 1.5473,-3.06761c0.14393,8.24915 0.04505,16.49845 0.34186,24.73865c-0.21582,0.21597 -0.64777,0.62972 -0.86374,0.84569c-6.39609,-0.25192 -12.79217,-0.18882 -19.18826,-0.22492c0.08099,-0.71966 0.24297,-2.17702 0.32396,-2.89668c3.1756,-0.61167 6.37804,-1.1334 9.61658,-1.28644c2.70786,0.19792 6.22516,2.84269 7.8894,-0.52173c0.67477,-5.82931 -0.0179,-11.73976 0.33291,-17.58696z" fill="#cedcea"/><path d="M325.66233,207.28006c0.4139,0.28786 1.23244,0.86359 1.64619,1.15145l0.31486,0.71966c0.49474,1.83517 -0.04505,3.69733 -0.16198,5.55054c-0.21582,4.6959 -0.22492,9.40076 -0.027,14.10561c0.4318,0.27876 1.28628,0.82765 1.71823,1.10656c14.06056,-0.0179 28.13022,-0.0179 42.19078,-0.027c1.29538,-0.06294 2.81569,0.17093 3.60724,-1.12446c-0.00895,-4.14717 0.73756,-8.45617 -0.60272,-12.47731c-0.24282,-2.3299 -1.68229,-4.83074 -0.25192,-7.02581c0.22492,-0.23387 0.67477,-0.71071 0.90864,-0.95368c0.24282,-0.25192 0.72876,-0.74665 0.97158,-0.99857c0.03594,0.51278 0.09889,1.53836 0.13483,2.06009c-0.33291,6.75599 0,13.52973 -0.28786,20.29467c-2.15003,2.39285 -6.13522,0.44984 -8.87902,1.15161c-13.43979,-0.14393 -26.87078,0.10784 -40.31057,-0.06294l-0.39585,-0.65672c-0.23387,-6.99881 1.27749,-14.30338 -0.4409,-21.16736c-0.03595,-0.4139 -0.09889,-1.23229 -0.13483,-1.64619z" fill="#3c7fcc"/><path d="M327.30852,208.43151l0.88164,-0.027c15.59892,-0.22492 31.20678,-0.05399 46.81465,-0.09904c-0.23387,0.24297 -0.68371,0.71981 -0.90864,0.95368c-15.49093,-0.15303 -30.98186,0.0179 -46.47279,-0.10799z" fill="#418fde"/><path d="M325.79716,208.92625c1.71823,6.86383 0.20687,14.16855 0.4409,21.16736c-2.10513,-6.63906 0.04505,-14.24954 -0.4409,-21.16736z" fill="#2f71bb"/><path d="M327.62338,209.15117c15.49093,0.12603 30.98186,-0.04489 46.47279,0.10799c-1.43037,2.19492 0.0091,4.6959 0.25192,7.02581c-12.39632,-5.4785 -25.93515,0.027 -38.9072,-1.67319c-2.79764,3.65228 -6.73794,-4.2911 -7.97949,0.08994c0.11694,-1.85321 0.65672,-3.71538 0.16198,-5.55054z" fill="#3984d5"/><path d="M327.4614,214.70171c1.24154,-4.38104 5.18169,3.56235 7.97949,-0.08994c12.97205,1.70033 26.51088,-3.80532 38.9072,1.67319c1.34028,4.02114 0.59377,8.33029 0.60272,12.47731c-0.79155,1.29538 -2.31186,1.06152 -3.60724,1.12446c3.9582,-2.73485 3.09461,-8.58221 -0.13498,-11.49679c-11.59567,0.33276 -22.95763,-3.63424 -34.56225,-1.62814c-2.74365,0.98052 -5.60454,1.55625 -8.37518,2.42879c-0.22492,3.58934 0.14393,7.20584 0.88164,10.72314c-0.4318,-0.27876 -1.28629,-0.82765 -1.71823,-1.10656c-0.19793,-4.70485 -0.18898,-9.4097 0.027,-14.10561z" fill="#3f89da"/><path d="M336.64633,216.7618c11.60478,-2.0061 22.96658,1.96105 34.56225,1.62814c3.22959,2.91458 4.09318,8.76209 0.13498,11.49679c-14.06056,0.0091 -28.13022,0.0091 -42.19078,0.027c-0.73756,-3.5173 -1.10656,-7.13379 -0.88164,-10.72314c2.77065,-0.87269 5.63153,-1.44826 8.37518,-2.42879z" fill="#428ce2"/><path d="M315.94671,218.85783c1.31343,4.08408 0.49474,8.45617 0.56678,12.65734c-5.59544,3.21154 -12.68419,1.64619 -18.83746,1.86201c-8.69899,-1.47526 -17.56891,-0.10784 -26.27701,-1.48436c13.70976,-0.54873 27.42846,0.15288 41.13822,-0.39585l0.3508,-0.71966l0.33276,-0.68371c0.21582,-0.21597 0.64777,-0.62972 0.86374,-0.84569l0.66567,-0.34171c1.06152,-2.95962 1.45736,-6.31525 1.1965,-10.04852z" fill="#325c8f"/><path d="M382.39051,223.76956c0.72876,-1.66424 1.49331,-3.31043 2.41089,-4.88473c0.3599,6.43203 -0.56678,13.05304 1.27749,19.32324c-0.027,0.4139 -0.08099,1.25049 -0.10783,1.66424l-0.80065,0.08099c-6.98091,0.39585 -13.95257,0.0179 -20.93349,-0.12603c-7.16974,1.33133 -14.45641,-0.57573 -21.69819,-0.16183c8.08732,-2.25801 16.78631,-3.70628 25.30543,-3.5804c3.46346,0.91758 6.06333,-1.38532 8.97791,-2.55483c1.37637,0.80065 1.5922,2.71665 2.72575,3.83216c3.1125,-3.62544 1.96105,-9.10379 2.84269,-13.59282z" fill="#2a538a"/><path d="M268.79916,227.26002c6.94482,-2.07799 14.42047,-0.41375 21.54516,-1.1695c1.35833,0.17093 2.7168,0.41375 4.01219,0.88164c-0.08099,0.71966 -0.24297,2.17702 -0.32396,2.89668c-9.33781,0.13483 -18.68442,-0.18883 -28.01314,0.14393c-0.29681,-0.90848 -0.54873,-1.82622 -0.7556,-2.75275c1.1604,0.66567 2.3839,0.70176 3.53535,0z" fill="#d6e4ee"/><path d="M265.13777,230.06676l0.88164,-0.05399c9.32886,-0.33276 18.67547,-0.0091 28.01314,-0.14393c6.39609,0.0361 12.79217,-0.027 19.18826,0.22492l-0.33276,0.68371c-15.62591,0.08994 -31.24273,-0.17093 -46.86864,0.17093c-0.21582,-0.22492 -0.66582,-0.66567 -0.88164,-0.88149z" fill="#9fb8d2"/><path d="M266.01941,230.94825c15.62591,-0.34186 31.24273,-0.08099 46.86864,-0.17093l-0.3508,0.71966c-13.70976,0.54873 -27.42846,-0.15288 -41.13822,0.39585c-1.2235,-0.0091 -2.44684,0 -3.66138,0.04505l-0.81855,-0.04505c-0.22492,-0.24297 -0.67461,-0.71071 -0.89953,-0.94458z" fill="#6481a5"/><path d="M329.34161,231.91982c12.53131,-0.45879 25.06261,-0.16198 37.60287,-0.22492c1.63724,0.08099 4.91172,0.25192 6.54897,0.33291c-12.78323,2.50978 -25.80927,3.03151 -38.78132,3.81427c-2.70786,-0.31486 -5.40646,-0.54873 -8.12327,-0.66566c-0.76455,-0.4318 -1.41247,-0.98053 -1.94315,-1.64619c1.47541,-0.76455 3.11265,-1.12446 4.6959,-1.61024z" fill="#1e599e"/><path d="M323.5032,237.78523c1.1695,-0.69266 2.13213,-1.65529 3.08566,-2.60882c2.71665,0.11693 5.41541,0.3508 8.12327,0.66566c-0.69266,1.53836 -2.11408,3.10356 -1.1695,4.85773c-8.35714,0 -16.72337,-0.07189 -25.08051,0.0361c-2.69876,0.25192 -5.23553,-0.57573 -7.43955,-2.10498c7.43955,-1.11551 14.98709,-0.35991 22.48064,-0.84569z" fill="#2a5b98"/><path d="M271.56085,238.82869c9.72456,2.80674 19.6381,-1.03452 29.46155,-0.19792c2.20402,1.52925 4.74095,2.3569 7.43955,2.10498l0.00895,0.86359c-3.82337,-0.027 -7.63748,0 -11.45174,-0.25192c-10.83097,-1.74523 -21.94101,0.30576 -32.81718,-1.23244c2.45579,-0.39585 4.92082,-0.76455 7.35871,-1.28628z" fill="#38649e"/><path d="M341.45007,240.60987c0.26982,-0.23387 0.8187,-0.71071 1.08851,-0.94458c7.24178,-0.4139 14.52845,1.49331 21.69819,0.16183c6.98091,0.14393 13.95257,0.52188 20.93349,0.12603c-1.38532,1.69124 -3.26553,2.22192 -5.63154,1.5922c-12.59425,0.09904 -25.1885,0.06294 -37.78274,-0.027z" fill="#3a5b89"/><path d="M385.17026,239.95315l0.80065,-0.08099l0.83659,-0.04505c-0.93563,0.82765 -1.42142,2.58182 -2.83374,2.58182c-42.28072,0.29696 -84.57055,-0.22477 -126.84217,0.25192c-0.26087,-0.23387 -0.77365,-0.71071 -1.03452,-0.94458c13.63787,-0.4048 27.28468,0.17093 40.9224,-0.36885c3.81427,0.25192 7.62838,0.22492 11.45174,0.25192c11.09199,-0.027 22.19293,0.027 33.28492,-0.08099c12.59425,0.08994 25.1885,0.12603 37.78274,0.027c2.366,0.62972 4.24606,0.09904 5.63154,-1.5922z" fill="#8ea6ca"/><path d="M308.46211,240.7359c8.35714,-0.10799 16.72337,-0.0361 25.08051,-0.0361c2.63581,0.0179 5.26268,-0.06294 7.90745,-0.08994l0.30591,0.90848c-11.09199,0.10799 -22.19293,0.05399 -33.28492,0.08099z" fill="#48699b"/></g></g></svg>