<svg version="1.1" xmlns="http://www.w3.org/2000/svg" xmlns:xlink="http://www.w3.org/1999/xlink" width="220.25145" height="25.17903" viewBox="0,0,220.25145,25.17903"><g transform="translate(-205.10978,-118.81052)"><g data-paper-data="{&quot;isPaintingLayer&quot;:true}" fill="#000000" fill-rule="nonzero" stroke-width="1" stroke-linecap="butt" stroke-linejoin="miter" stroke-miterlimit="10" stroke-dasharray="" stroke-dashoffset="0" style="mix-blend-mode: normal"><text transform="translate(226.80435,139.64417) scale(0.34763,0.34763)" font-size="40" xml:space="preserve" fill="#000000" fill-rule="nonzero" stroke="#000000" stroke-width="1" stroke-linecap="butt" stroke-linejoin="miter" stroke-miterlimit="10" stroke-dasharray="" stroke-dashoffset="0" font-family="Sans Serif" font-weight="normal" text-anchor="start" style="mix-blend-mode: normal"><tspan x="0" dy="0">天气  ·  浙江省宁波市 </tspan></text><path d="M211.95416,128.11762v-1.36832c0,-0.2519 0.20421,-0.45611 0.45611,-0.45611c0.2519,0 0.45611,0.20421 0.45611,0.45611v1.36832c0,0.2519 -0.20421,0.45611 -0.45611,0.45611c-0.2519,0 -0.45611,-0.20421 -0.45611,-0.45611zM207.25076,129.06906c-0.11857,-0.11452 -0.16612,-0.2841 -0.12438,-0.44357c0.04174,-0.15947 0.16627,-0.28401 0.32574,-0.32575c0.15947,-0.04174 0.32905,0.00581 0.44357,0.12438l0.96695,0.96878c0.11857,0.11452 0.16612,0.2841 0.12438,0.44357c-0.04174,0.15947 -0.16627,0.28401 -0.32574,0.32575c-0.15947,0.04174 -0.32905,-0.00581 -0.44357,-0.12438zM206.93422,134.03699h-1.36833c-0.2519,0 -0.45611,-0.20421 -0.45611,-0.45611c0,-0.2519 0.20421,-0.45611 0.45611,-0.45611h1.36833c0.2519,0 0.4561,0.20421 0.4561,0.45611c0,0.2519 -0.2042,0.45611 -0.4561,0.45611zM208.84888,137.13406c0.17594,0.17594 0.17842,0.46041 0.00556,0.63938l-0.96787,0.96695c-0.11452,0.11857 -0.2841,0.16613 -0.44357,0.12439c-0.15947,-0.04174 -0.28401,-0.16629 -0.32575,-0.32576c-0.04174,-0.15947 0.00581,-0.32905 0.12438,-0.44357l0.96786,-0.96695c0.17897,-0.17285 0.46345,-0.17038 0.63938,0.00556zM217.87445,133.13755h1.36832c0.2519,0 0.45611,0.20421 0.45611,0.45611c0,0.2519 -0.20421,0.45611 -0.45611,0.45611h-1.36832c-0.2519,0 -0.45611,-0.20421 -0.45611,-0.45611c0,-0.2519 0.20421,-0.45611 0.45611,-0.45611zM215.85482,129.89827c-0.0705,-0.17057 -0.03126,-0.36682 0.09941,-0.49716l0.96695,-0.96786c0.17835,-0.1781 0.4673,-0.17789 0.64539,0.00046c0.1781,0.17835 0.17789,0.4673 -0.00046,0.6454l-0.96695,0.96695c-0.08544,0.08599 -0.20171,0.13427 -0.32292,0.1341c-0.18456,-0.00004 -0.35092,-0.1113 -0.42142,-0.28187zM209.21477,133.58728c0.00233,1.09097 0.56264,2.1049 1.48509,2.68739c-0.24048,0.19696 -0.44696,0.4321 -0.61119,0.69602c-1.7149,-1.17212 -2.28179,-3.44181 -1.31942,-5.28262c0.96238,-1.84081 3.14969,-2.67061 5.09088,-1.93133c1.94118,0.73928 3.02239,2.81387 2.51646,4.82851c-0.28852,-0.09959 -0.58812,-0.16361 -0.89215,-0.19065c0.07371,-0.26291 0.11297,-0.53429 0.11677,-0.80731c0,-1.76331 -1.42945,-3.19276 -3.19276,-3.19276c-1.76331,0 -3.19277,1.42945 -3.19277,3.19276z" stroke="none"/><path d="M217.76954,136.52096c1.05295,0 1.90653,0.85359 1.90653,1.90654c0,1.05295 -0.85358,1.90653 -1.90653,1.90653c-0.25962,0.00019 -0.5167,-0.05127 -0.75623,-0.15142c-1.06948,0.93637 -2.66696,0.93637 -3.73644,0c-0.23961,0.09981 -0.49667,0.15097 -0.75623,0.15051c-1.05295,0 -1.90653,-0.85358 -1.90653,-1.90653c0,-1.05295 0.85358,-1.90653 1.90653,-1.90653c0.08068,0.00293 0.16111,0.01084 0.24083,0.02371c0.53231,-0.79554 1.42643,-1.27307 2.38363,-1.27307c0.9572,0 1.85131,0.47753 2.38362,1.27307c0.07971,-0.01287 0.16014,-0.02079 0.24083,-0.02371zM218.76386,138.42659c0,-0.54915 -0.44517,-0.99432 -0.99432,-0.99432c-0.01642,0.00091 -0.03922,0.00548 -0.06203,0.00821l-0.06842,0.00912c-0.34248,0.04183 -0.67924,-0.11314 -0.87025,-0.40046c-0.36325,-0.54102 -0.9721,-0.86558 -1.62375,-0.86558c-0.65165,0 -1.2605,0.32456 -1.62375,0.86558c-0.19101,0.28732 -0.52778,0.44229 -0.87026,0.40046l-0.06841,-0.00821c-0.02281,-0.00365 -0.0447,-0.00822 -0.06842,-0.00913c-0.5494,0.00177 -0.99335,0.44858 -0.99158,0.99797c0.00177,0.5494 0.44857,0.99335 0.99796,0.99158c0.13877,0.00012 0.27616,-0.02748 0.40412,-0.08119c0.31893,-0.1335 0.68591,-0.07522 0.94779,0.15051c0.72716,0.64131 1.81793,0.64131 2.54509,0c0.26188,-0.22573 0.62887,-0.28401 0.9478,-0.15051c0.12802,0.05339 0.2654,0.08068 0.40411,0.08028c0.54915,0 0.99432,-0.44517 0.99432,-0.99432z" stroke="none"/><text transform="translate(412.26337,135.21033) scale(0.38228,0.38228)" font-size="40" xml:space="preserve" fill="#000000" fill-rule="nonzero" stroke="none" stroke-width="1" stroke-linecap="butt" stroke-linejoin="miter" stroke-miterlimit="10" stroke-dasharray="" stroke-dashoffset="0" font-family="Sans Serif" font-weight="normal" text-anchor="start" style="mix-blend-mode: normal"><tspan x="0" dy="0">...</tspan></text></g></g></svg>