<svg version="1.1" xmlns="http://www.w3.org/2000/svg" xmlns:xlink="http://www.w3.org/1999/xlink" width="60.09295" height="18.47516" viewBox="0,0,60.09295,18.47516"><g transform="translate(-290.00451,-135.94536)"><g data-paper-data="{&quot;isPaintingLayer&quot;:true}" fill-rule="nonzero" stroke="none" stroke-linecap="butt" stroke-linejoin="miter" stroke-miterlimit="10" stroke-dasharray="" stroke-dashoffset="0" style="mix-blend-mode: normal"><path d="M290.00451,150.69763v-10.2203h59.93918v10.2203z" fill="#f1f1f9" stroke-width="0"/><path d="M293.66668,154.42052v-18.47516h52v18.47516z" fill="#f1f1f9" stroke-width="0"/><path d="M350.09746,139.86756c0,2.12323 -1.6256,3.84446 -3.63088,3.84446c-2.00527,0 -3.63088,-1.72123 -3.63088,-3.84446c0,-2.12323 1.6256,-3.84446 3.63088,-3.84446c2.00527,0 3.63088,1.72122 3.63088,3.84446z" fill="#f1f1f9" stroke-width="0"/><path d="M349.98787,150.48812c0,2.12323 -1.6256,3.84446 -3.63088,3.84446c-2.00527,0 -3.63088,-1.72123 -3.63088,-3.84446c0,-2.12323 1.6256,-3.84445 3.63088,-3.84445c2.00527,0 3.63088,1.72122 3.63088,3.84445z" fill="#f1f1f9" stroke-width="0"/><path d="M297.41981,139.81871c0,2.12323 -1.6256,3.84446 -3.63088,3.84446c-2.00527,0 -3.63087,-1.72123 -3.63087,-3.84446c0,-2.12323 1.6256,-3.84445 3.63087,-3.84445c2.00527,0 3.63088,1.72122 3.63088,3.84445z" fill="#f1f1f9" stroke-width="0"/><path d="M297.31022,150.43926c0,2.12323 -1.6256,3.84446 -3.63088,3.84446c-2.00527,0 -3.63088,-1.72123 -3.63088,-3.84446c0,-2.12323 1.6256,-3.84446 3.63088,-3.84446c2.00527,0 3.63088,1.72122 3.63088,3.84446z" fill="#f1f1f9" stroke-width="0"/><g data-paper-data="{&quot;index&quot;:null}" fill="#000000" stroke-width="1"><path d="M304.36101,139.94406c1.33601,0.8293 2.33324,2.1609 2.78987,3.66189c0.09574,0.43306 -0.45516,0.78069 -0.81163,0.52586c-0.3167,-0.31964 -0.38298,-0.78953 -0.58626,-1.17693c-0.93831,-1.89281 -3.08742,-3.1051 -5.19529,-2.90477c-1.86776,0.16203 -3.64863,1.36105 -4.38955,3.0992c0.7586,0.05009 1.52456,-0.04566 2.27874,0.05598c0.48756,0.16203 0.40654,0.95598 -0.09133,1.03699c-1.12833,0.04272 -2.2596,0.01474 -3.38939,0.01621c-0.35942,0.0383 -0.62603,-0.3167 -0.58626,-0.65254c0.00442,-1.0856 -0.01326,-2.17415 0.01473,-3.25976c-0.00442,-0.56269 0.89411,-0.67317 1.03552,-0.13552c0.08249,0.62308 0.03978,1.26089 0.04714,1.88839c0.83224,-1.29772 2.09166,-2.35092 3.5794,-2.80313c1.74846,-0.58479 3.75321,-0.35647 5.30429,0.64812z"/><path d="M307.62811,147.12202c-0.00442,1.08708 0.01326,2.17415 -0.00884,3.25976c0,0.57447 -0.93978,0.70999 -1.05909,0.1311c-0.09132,-0.52586 -0.02209,-1.06351 -0.06481,-1.59379c-0.61424,0.72766 -1.26384,1.45238 -2.10198,1.92816c-1.41261,0.83814 -3.14928,1.11654 -4.75044,0.74534c-1.97677,-0.464 -3.68546,-1.92964 -4.45289,-3.80772c-0.10606,-0.30491 -0.31228,-0.61425 -0.21948,-0.95009c0.13699,-0.25483 0.44779,-0.39918 0.72619,-0.29018c0.2239,0.13551 0.31376,0.39476 0.40803,0.62455c0.58331,1.68659 2.09902,2.99462 3.83128,3.39233c2.35534,0.54796 5.03179,-0.72914 5.9804,-2.97694c-0.75859,-0.02357 -1.51867,0.02209 -2.27579,-0.0221c-0.56269,-0.08838 -0.55679,-0.99281 0.00884,-1.07382c1.12979,-0.03829 2.26254,-0.0162 3.39233,-0.01031c0.35057,-0.03683 0.62749,0.30933 0.58625,0.6437z"/></g><text transform="translate(317.90682,148.70966) scale(0.26214,0.26214)" font-size="40" xml:space="preserve" fill="#000000" fill-rule="nonzero" stroke="none" stroke-width="1" stroke-linecap="butt" stroke-linejoin="miter" stroke-miterlimit="10" stroke-dasharray="" stroke-dashoffset="0" font-family="Sans Serif" font-weight="normal" text-anchor="start" style="mix-blend-mode: normal"><tspan x="0" dy="0">重启</tspan></text></g></g></svg>