<svg version="1.1" xmlns="http://www.w3.org/2000/svg" xmlns:xlink="http://www.w3.org/1999/xlink" width="554.62265" height="84.38473" viewBox="0,0,554.62265,84.38473"><g transform="translate(-308.99369,-136.93091)"><g data-paper-data="{&quot;isPaintingLayer&quot;:true}" fill-rule="nonzero" stroke="none" stroke-width="1" stroke-linecap="butt" stroke-linejoin="miter" stroke-miterlimit="10" stroke-dasharray="" stroke-dashoffset="0" style="mix-blend-mode: normal"><g fill="#0062c4"><path d="M330.60135,143.30706c10.24551,-6.63573 23.48779,-8.14388 35.03709,-4.28113c9.82714,2.98705 18.14613,9.94387 23.64348,18.51586c0.04864,-4.14489 -0.23352,-8.35792 0.31135,-12.47362c0.93406,-3.55137 6.86925,-2.82165 6.84006,0.89515c0.18488,7.17089 0.06809,14.36124 0.09731,21.5321c0.26271,2.21839 -1.49838,4.56329 -3.87246,4.31032c-7.46277,-0.00971 -14.93527,0.17511 -22.38833,-0.10705c-3.28866,-0.53513 -3.82382,-5.77951 -0.60325,-6.84978c4.98169,-0.67135 10.04118,-0.03893 15.05203,-0.36976c-4.89409,-11.48121 -16.65746,-19.40125 -28.99487,-20.47155c-13.92339,-1.32327 -28.11919,6.6844 -34.3171,19.18721c-1.34272,2.55894 -1.78054,5.66275 -3.87246,7.77412c-2.35463,1.68326 -5.99358,-0.61299 -5.36113,-3.47354c3.01624,-9.91468 9.60333,-18.71046 18.42827,-24.18835z"/><path d="M309.02063,190.72051c-0.27242,-2.20868 1.55676,-4.4952 3.87246,-4.25194c7.46277,-0.03893 14.94501,-0.18485 22.40778,0.06812c3.73625,0.53513 3.77518,6.50926 0.05838,7.09304c-5.00111,0.2919 -10.02173,-0.00974 -15.03258,0.14595c6.266,14.8477 23.94509,23.28346 39.50307,19.66396c11.44228,-2.62706 21.45425,-11.26714 25.30726,-22.40778c0.6227,-1.51786 1.21624,-3.23031 2.69517,-4.12544c1.83895,-0.71999 3.89192,0.23352 4.79681,1.91678c0.61299,2.21839 -0.7492,4.26167 -1.44977,6.27574c-5.06923,12.40553 -16.35582,22.08669 -29.41324,25.1516c-10.57632,2.45192 -22.04779,0.61299 -31.37869,-4.92328c-5.53627,-3.14274 -9.82714,-7.92981 -13.88446,-12.73633c-0.28216,3.50273 0.17514,7.05413 -0.42811,10.52767c-0.78811,3.82382 -6.99573,2.92867 -6.99573,-0.86596c-0.14595,-7.17089 -0.02919,-14.35147 -0.05838,-21.53208z"/></g><text transform="translate(444.89456,177.26036) scale(0.74572,0.74572)" font-size="40" xml:space="preserve" fill="#000000" fill-rule="nonzero" stroke="none" stroke-width="1" stroke-linecap="butt" stroke-linejoin="miter" stroke-miterlimit="10" stroke-dasharray="" stroke-dashoffset="0" font-family="Sans Serif" font-weight="normal" text-anchor="start" style="mix-blend-mode: normal"><tspan x="0" dy="0">已有可用更新，请至爱发电下载</tspan></text></g></g></svg>