<svg version="1.1" xmlns="http://www.w3.org/2000/svg" xmlns:xlink="http://www.w3.org/1999/xlink" width="569.72552" height="316.6036" viewBox="0,0,569.72552,316.6036"><g transform="translate(-35.34355,-18.88889)"><g data-paper-data="{&quot;isPaintingLayer&quot;:true}" fill="#f1f1f9" fill-rule="nonzero" stroke="none" stroke-width="0" stroke-linecap="butt" stroke-linejoin="miter" stroke-miterlimit="10" stroke-dasharray="" stroke-dashoffset="0" style="mix-blend-mode: normal"><path d="M35.34355,318.34835v-276.71471h569.3129v276.71471z"/><path d="M54.37959,334.9009v-315.81682h528.72131v315.81682z"/><path d="M35.46547,42.19069c0,-12.86923 10.43257,-23.3018 23.3018,-23.3018c12.86923,0 23.3018,10.43257 23.3018,23.3018c0,12.86923 -10.43257,23.3018 -23.3018,23.3018c-12.86923,0 -23.3018,-10.43257 -23.3018,-23.3018z"/><path d="M35.46547,312.19069c0,-12.86923 10.43257,-23.3018 23.3018,-23.3018c12.86923,0 23.3018,10.43257 23.3018,23.3018c0,12.86923 -10.43257,23.3018 -23.3018,23.3018c-12.86923,0 -23.3018,-10.43258 -23.3018,-23.3018z"/><path d="M557.46547,42.19069c0,-12.86923 10.43257,-23.3018 23.3018,-23.3018c12.86923,0 23.3018,10.43257 23.3018,23.3018c0,12.86923 -10.43258,23.3018 -23.3018,23.3018c-12.86923,0 -23.3018,-10.43258 -23.3018,-23.3018z"/><path d="M558.46547,311.19069c0,-12.86923 10.43258,-23.3018 23.3018,-23.3018c12.86923,0 23.3018,10.43257 23.3018,23.3018c0,12.86923 -10.43258,23.3018 -23.3018,23.3018c-12.86923,0 -23.3018,-10.43258 -23.3018,-23.3018z"/></g></g></svg>