<svg version="1.1" xmlns="http://www.w3.org/2000/svg" xmlns:xlink="http://www.w3.org/1999/xlink" width="60.09295" height="18.47516" viewBox="0,0,60.09295,18.47516"><g transform="translate(-290.00451,-135.94536)"><g data-paper-data="{&quot;isPaintingLayer&quot;:true}" fill-rule="nonzero" stroke-linejoin="miter" stroke-miterlimit="10" stroke-dasharray="" stroke-dashoffset="0" style="mix-blend-mode: normal"><path d="M290.00451,150.69763v-10.2203h59.93918v10.2203z" fill="#1b1f28" stroke="none" stroke-width="0" stroke-linecap="butt"/><path d="M293.66668,154.42052v-18.47516h52v18.47516z" fill="#1b1f28" stroke="none" stroke-width="0" stroke-linecap="butt"/><path d="M350.09746,139.86756c0,2.12323 -1.6256,3.84446 -3.63088,3.84446c-2.00527,0 -3.63088,-1.72123 -3.63088,-3.84446c0,-2.12323 1.6256,-3.84446 3.63088,-3.84446c2.00527,0 3.63088,1.72122 3.63088,3.84446z" fill="#1b1f28" stroke="none" stroke-width="0" stroke-linecap="butt"/><path d="M349.98787,150.48812c0,2.12323 -1.6256,3.84446 -3.63088,3.84446c-2.00527,0 -3.63088,-1.72123 -3.63088,-3.84446c0,-2.12323 1.6256,-3.84445 3.63088,-3.84445c2.00527,0 3.63088,1.72122 3.63088,3.84445z" fill="#1b1f28" stroke="none" stroke-width="0" stroke-linecap="butt"/><path d="M297.41981,139.81871c0,2.12323 -1.6256,3.84446 -3.63088,3.84446c-2.00527,0 -3.63087,-1.72123 -3.63087,-3.84446c0,-2.12323 1.6256,-3.84445 3.63087,-3.84445c2.00527,0 3.63088,1.72122 3.63088,3.84445z" fill="#1b1f28" stroke="none" stroke-width="0" stroke-linecap="butt"/><path d="M297.31022,150.43926c0,2.12323 -1.6256,3.84446 -3.63088,3.84446c-2.00527,0 -3.63088,-1.72123 -3.63088,-3.84446c0,-2.12323 1.6256,-3.84446 3.63088,-3.84446c2.00527,0 3.63088,1.72122 3.63088,3.84446z" fill="#1b1f28" stroke="none" stroke-width="0" stroke-linecap="butt"/><text transform="translate(317.90682,148.70966) scale(0.26214,0.26214)" font-size="40" xml:space="preserve" fill="#ffffff" fill-rule="nonzero" stroke="none" stroke-width="1" stroke-linecap="butt" stroke-linejoin="miter" stroke-miterlimit="10" stroke-dasharray="" stroke-dashoffset="0" font-family="Sans Serif" font-weight="normal" text-anchor="start" style="mix-blend-mode: normal"><tspan x="0" dy="0">注销</tspan></text><path d="M301.44905,150.43706l-4.45512,-2.41015v-6.90908l4.90063,-2.65116v12.13106" fill="none" stroke="#ffffff" stroke-width="1" stroke-linecap="round"/><path d="M300.44847,144.70515v0.85917" fill="none" stroke="#ffffff" stroke-width="1" stroke-linecap="round"/><path d="M304.06369,148.99097v-8.67652" fill="none" stroke="#ffffff" stroke-width="1" stroke-linecap="round"/><path d="M306.79518,144.65271h-4.65961" fill="none" stroke="#ffffff" stroke-width="1" stroke-linecap="round"/><path d="M305.83113,143.3673l1.36575,1.36575l-1.20507,1.20507" fill="none" stroke="#ffffff" stroke-width="1" stroke-linecap="round"/></g></g></svg>