<svg version="1.1" xmlns="http://www.w3.org/2000/svg" xmlns:xlink="http://www.w3.org/1999/xlink" width="286.16345" height="84.38473" viewBox="0,0,286.16345,84.38473"><g transform="translate(-308.9937,-136.93091)"><g data-paper-data="{&quot;isPaintingLayer&quot;:true}" fill-rule="nonzero" stroke="none" stroke-width="1" stroke-linecap="butt" stroke-linejoin="miter" stroke-miterlimit="10" stroke-dasharray="" stroke-dashoffset="0" style="mix-blend-mode: normal"><text transform="translate(444.89457,177.26036) scale(0.74572,0.74572)" font-size="40" xml:space="preserve" fill="#ffffff" fill-rule="nonzero" stroke="none" stroke-width="1" stroke-linecap="butt" stroke-linejoin="miter" stroke-miterlimit="10" stroke-dasharray="" stroke-dashoffset="0" font-family="Sans Serif" font-weight="normal" text-anchor="start" style="mix-blend-mode: normal"><tspan x="0" dy="0">无可用更新</tspan></text><g fill="#0095ff"><path d="M330.60134,143.30706c10.24551,-6.63573 23.48779,-8.14388 35.03709,-4.28113c9.82714,2.98705 18.14613,9.94387 23.64347,18.51586c0.04864,-4.14489 -0.23352,-8.35792 0.31135,-12.47362c0.93406,-3.55138 6.86925,-2.82165 6.84006,0.89515c0.18488,7.1709 0.06809,14.36123 0.09731,21.5321c0.26271,2.21839 -1.49838,4.56329 -3.87247,4.31032c-7.46277,-0.00971 -14.93527,0.17511 -22.38833,-0.10705c-3.28866,-0.53513 -3.82382,-5.7795 -0.60325,-6.84977c4.98169,-0.67135 10.04118,-0.03893 15.05203,-0.36976c-4.89409,-11.48121 -16.65747,-19.40125 -28.99487,-20.47155c-13.92338,-1.32326 -28.11919,6.6844 -34.3171,19.18721c-1.34272,2.55893 -1.78055,5.66274 -3.87247,7.77412c-2.35463,1.68326 -5.99358,-0.613 -5.36113,-3.47355c3.01624,-9.91468 9.60333,-18.71045 18.42827,-24.18835z"/><path d="M309.02064,190.72052c-0.27242,-2.20868 1.55676,-4.49519 3.87246,-4.25194c7.46277,-0.03893 14.94501,-0.18485 22.40778,0.06812c3.73625,0.53513 3.77518,6.50926 0.05838,7.09303c-5.00112,0.2919 -10.02173,-0.00974 -15.03258,0.14595c6.266,14.8477 23.94509,23.28346 39.50307,19.66397c11.44228,-2.62706 21.45424,-11.26714 25.30726,-22.40778c0.6227,-1.51786 1.21625,-3.23031 2.69518,-4.12544c1.83895,-0.71999 3.89192,0.23352 4.79681,1.91678c0.61299,2.21839 -0.74921,4.26168 -1.44977,6.27574c-5.06923,12.40553 -16.35583,22.08669 -29.41325,25.15159c-10.57632,2.45192 -22.04779,0.61299 -31.37869,-4.92328c-5.53627,-3.14274 -9.82713,-7.92981 -13.88446,-12.73633c-0.28216,3.50273 0.17514,7.05414 -0.42811,10.52768c-0.7881,3.82382 -6.99573,2.92867 -6.99573,-0.86596c-0.14595,-7.1709 -0.02919,-14.35148 -0.05838,-21.53208z"/></g></g></g></svg>