<svg version="1.1" xmlns="http://www.w3.org/2000/svg" xmlns:xlink="http://www.w3.org/1999/xlink" width="197.02013" height="52.69084" viewBox="0,0,197.02013,52.69084"><g transform="translate(-297.46,-151.79321)"><g data-paper-data="{&quot;isPaintingLayer&quot;:true}" fill-rule="nonzero" stroke="none" stroke-width="1" stroke-linecap="butt" stroke-linejoin="miter" stroke-miterlimit="10" stroke-dasharray="" stroke-dashoffset="0" style="mix-blend-mode: normal"><text transform="translate(380.73548,192.78192) scale(0.93617,0.93617)" font-size="40" xml:space="preserve" fill="#5d5d5d" fill-rule="nonzero" stroke="none" stroke-width="1" stroke-linecap="butt" stroke-linejoin="miter" stroke-miterlimit="10" stroke-dasharray="" stroke-dashoffset="0" font-family="Sans Serif" font-weight="normal" text-anchor="start" style="mix-blend-mode: normal"><tspan x="0" dy="0">个性化</tspan></text><g><path d="M337.9614,156.05164c3.03371,-2.83443 6.75386,-5.80171 11.00554,-3.34374c-12.40063,7.61756 -17.18372,27.61356 -33.65887,27.59139c0.64218,-1.01863 1.92653,-3.03372 2.56871,-4.03017c7.97183,-5.02668 16.38656,-11.18271 20.08462,-20.21748z" fill="#99a2aa"/><path d="M315.30812,180.29929c16.47516,0.02218 21.2582,-19.97388 33.65883,-27.59139l1.9044,0.50931v1.99295c-8.34828,12.11279 -16.6744,24.35843 -27.76855,34.19032c-1.50577,-1.68293 -3.12232,-3.27731 -4.82739,-4.76095c-1.35078,-0.77508 -4.07448,-2.30293 -5.44738,-3.07797c0.62,-0.30998 1.86005,-0.95225 2.4801,-1.26227z" fill="#838a91"/><path d="M317.87664,176.26911c4.91595,-8.25973 12.68853,-14.28286 20.08462,-20.21748c-3.69806,9.03472 -12.11278,15.1908 -20.08462,20.21748z" fill="#aeb7c0"/><path d="M297.46001,202.31039c5.53599,-6.66536 6.51036,-17.40518 15.36796,-20.74892c1.37291,0.77508 4.09665,2.30294 5.44738,3.07798c-5.44743,5.95675 -11.18272,11.66985 -16.56372,17.6709c-1.06289,0 -3.18874,0 -4.25163,0z" fill="#f7a124"/><path d="M318.27536,184.63944c1.70506,1.48369 3.32162,3.07801 4.82739,4.76095c-1.70506,9.76555 -11.07198,16.85161 -21.3911,12.90995c5.381,-6.00105 11.11628,-11.71419 16.56372,-17.6709z" fill="#eb7721"/></g></g></g></svg>