<svg version="1.1" xmlns="http://www.w3.org/2000/svg" xmlns:xlink="http://www.w3.org/1999/xlink" width="34.07715" height="32.84028" viewBox="0,0,34.07715,32.84028"><g transform="translate(-257.99368,-80.25758)"><g data-paper-data="{&quot;isPaintingLayer&quot;:true}" fill="#0095ff" fill-rule="nonzero" stroke="none" stroke-width="1" stroke-linecap="butt" stroke-linejoin="miter" stroke-miterlimit="10" stroke-dasharray="" stroke-dashoffset="0" style="mix-blend-mode: normal"><g><path d="M266.40281,82.73901c3.98728,-2.58245 9.14082,-3.16938 13.6355,-1.6661c3.82446,1.16248 7.06199,3.86989 9.20141,7.20588c0.01893,-1.61308 -0.09088,-3.25268 0.12117,-4.8544c0.36351,-1.3821 2.67333,-1.09811 2.66197,0.34837c0.07195,2.79072 0.0265,5.58901 0.03787,8.37972c0.10224,0.86334 -0.58313,1.77591 -1.50706,1.67746c-2.90431,-0.00378 -5.81241,0.06815 -8.71294,-0.04166c-1.27986,-0.20826 -1.48813,-2.24923 -0.23477,-2.66575c1.93874,-0.26127 3.90776,-0.01515 5.85785,-0.1439c-1.90465,-4.46818 -6.48264,-7.55045 -11.28403,-7.96698c-5.41861,-0.51498 -10.94324,2.60139 -13.3553,7.46715c-0.52255,0.99587 -0.69294,2.20379 -1.50706,3.02548c-0.91636,0.65508 -2.33254,-0.23856 -2.08641,-1.35181c1.17384,-3.85853 3.73736,-7.28161 7.17179,-9.41346z"/><path d="M258.00417,101.19106c-0.10602,-0.85956 0.60585,-1.74941 1.50706,-1.65474c2.90431,-0.01515 5.8162,-0.07194 8.72051,0.02651c1.45405,0.20826 1.4692,2.53323 0.02272,2.76042c-1.9463,0.1136 -3.90019,-0.00379 -5.85028,0.0568c2.43856,5.77833 9.31879,9.0613 15.37354,7.65269c4.45303,-1.02238 8.34942,-4.38487 9.84891,-8.72051c0.24234,-0.59071 0.47333,-1.25715 1.04889,-1.60551c0.71567,-0.2802 1.51463,0.09088 1.86679,0.74596c0.23856,0.86334 -0.29157,1.65853 -0.56421,2.44235c-1.97281,4.8279 -6.36525,8.59555 -11.44685,9.78833c-4.11602,0.95422 -8.58041,0.23856 -12.21175,-1.91601c-2.15457,-1.22307 -3.82446,-3.08607 -5.40346,-4.95664c-0.10981,1.36317 0.06816,2.74528 -0.16661,4.09709c-0.30671,1.48813 -2.72255,1.13976 -2.72255,-0.33701c-0.0568,-2.79072 -0.01136,-5.58521 -0.02272,-8.37971z"/></g></g></g></svg>