<svg version="1.1" xmlns="http://www.w3.org/2000/svg" xmlns:xlink="http://www.w3.org/1999/xlink" width="31.375" height="31.32134" viewBox="0,0,31.375,31.32134"><g transform="translate(-304.375,-164.32503)"><g data-paper-data="{&quot;isPaintingLayer&quot;:true}" fill-rule="nonzero" stroke-linejoin="miter" stroke-miterlimit="10" stroke-dasharray="" stroke-dashoffset="0" style="mix-blend-mode: normal"><path d="M304.375,191.62503v-23.5h31.25v23.5z" fill="#1e221a" stroke="none" stroke-width="0" stroke-linecap="butt"/><path d="M308.27798,164.35369l23.49996,0.04342l-0.05591,31.24926l-23.49996,-0.04342z" fill="#1e221a" stroke="none" stroke-width="0" stroke-linecap="butt"/><path d="M312,168.20003c0,2.1401 -1.67893,3.875 -3.75,3.875c-2.07107,0 -3.75,-1.7349 -3.75,-3.875c0,-2.1401 1.67893,-3.875 3.75,-3.875c2.07107,0 3.75,1.7349 3.75,3.875z" fill="#1e221a" stroke="none" stroke-width="0" stroke-linecap="butt"/><path d="M335.75,168.20003c0,2.14011 -1.67893,3.875 -3.75,3.875c-2.07107,0 -3.75,-1.73489 -3.75,-3.875c0,-2.14011 1.67893,-3.875 3.75,-3.875c2.07107,0 3.75,1.73489 3.75,3.875z" fill="#1e221a" stroke="none" stroke-width="0" stroke-linecap="butt"/><path d="M335.75,191.70003c0,2.14011 -1.67893,3.875 -3.75,3.875c-2.07107,0 -3.75,-1.73489 -3.75,-3.875c0,-2.14011 1.67893,-3.875 3.75,-3.875c2.07107,0 3.75,1.73489 3.75,3.875z" fill="#1e221a" stroke="none" stroke-width="0" stroke-linecap="butt"/><path d="M312,191.70003c0,2.14011 -1.67893,3.875 -3.75,3.875c-2.07107,0 -3.75,-1.73489 -3.75,-3.875c0,-2.14011 1.67893,-3.875 3.75,-3.875c2.07107,0 3.75,1.73489 3.75,3.875z" fill="#1e221a" stroke="none" stroke-width="0" stroke-linecap="butt"/><path d="M320,183.57502l-6.25,-6.5" data-paper-data="{&quot;index&quot;:null}" fill="none" stroke="#ffffff" stroke-width="0.5" stroke-linecap="round"/><path d="M326.5,177.07502l-6.25,6.5" data-paper-data="{&quot;index&quot;:null}" fill="none" stroke="#ffffff" stroke-width="0.5" stroke-linecap="round"/></g></g></svg>