<svg version="1.1" xmlns="http://www.w3.org/2000/svg" xmlns:xlink="http://www.w3.org/1999/xlink" width="67.16667" height="94" viewBox="0,0,67.16667,94"><g transform="translate(-286.5,-132.9)"><g data-paper-data="{&quot;isPaintingLayer&quot;:true}" fill="#1b1f28" fill-rule="nonzero" stroke="none" stroke-width="0" stroke-linecap="butt" stroke-linejoin="miter" stroke-miterlimit="10" stroke-dasharray="" stroke-dashoffset="0" style="mix-blend-mode: normal"><path d="M286.5,218v-76h67v76z"/><path d="M293.66667,226.9v-94h52v94z"/><path d="M353.66667,141.4c0,4.69442 -3.59416,8.5 -8.02778,8.5c-4.43362,0 -8.02778,-3.80558 -8.02778,-8.5c0,-4.69442 3.59415,-8.5 8.02778,-8.5c4.43362,0 8.02778,3.80558 8.02778,8.5z"/><path d="M302.66667,141.4c0,4.69442 -3.59416,8.5 -8.02778,8.5c-4.43362,0 -8.02778,-3.80558 -8.02778,-8.5c0,-4.69442 3.59416,-8.5 8.02778,-8.5c4.43362,0 8.02778,3.80558 8.02778,8.5z"/><path d="M302.66667,218.4c0,4.69442 -3.59416,8.5 -8.02778,8.5c-4.43362,0 -8.02778,-3.80558 -8.02778,-8.5c0,-4.69442 3.59416,-8.5 8.02778,-8.5c4.43362,0 8.02778,3.80558 8.02778,8.5z"/><path d="M353.33334,218.39999c0,4.69442 -3.59416,8.5 -8.02778,8.5c-4.43362,0 -8.02778,-3.80558 -8.02778,-8.5c0,-4.69442 3.59416,-8.5 8.02778,-8.5c4.43362,0 8.02778,3.80558 8.02778,8.5z"/></g></g></svg>