<svg version="1.1" xmlns="http://www.w3.org/2000/svg" xmlns:xlink="http://www.w3.org/1999/xlink" width="53.62541" height="42.88021" viewBox="0,0,53.62541,42.88021"><g transform="translate(-399.06035,-112.95401)"><g data-paper-data="{&quot;isPaintingLayer&quot;:true}" fill-rule="nonzero" stroke-linejoin="miter" stroke-miterlimit="10" stroke-dasharray="" stroke-dashoffset="0" style="mix-blend-mode: normal"><path d="M405.40527,155.83422v-17.21925h45.918v17.21925z" fill="#1b1f28" stroke="none" stroke-width="0" stroke-linecap="butt"/><path d="M427.52919,143.40683l7.72833,7.72833" fill="none" stroke="#ffffff" stroke-width="1.5" stroke-linecap="round"/><path d="M427.51622,151.12219l7.72833,-7.72833" data-paper-data="{&quot;index&quot;:null}" fill="none" stroke="#ffffff" stroke-width="1.5" stroke-linecap="round"/><path d="M399.06036,126.57811v-9.12033h53.48819v9.12033z" fill="#1b1f28" stroke="none" stroke-width="0" stroke-linecap="butt"/><path d="M402.32839,129.90032v-16.48676h46.40348v16.48676z" fill="#1b1f28" stroke="none" stroke-width="0" stroke-linecap="butt"/><path d="M452.68577,116.91363c0,1.89471 -1.45065,3.4307 -3.2401,3.4307c-1.78946,0 -3.2401,-1.53599 -3.2401,-3.4307c0,-1.89471 1.45065,-3.4307 3.2401,-3.4307c1.78946,0 3.2401,1.53597 3.2401,3.4307z" fill="#1b1f28" stroke="none" stroke-width="0" stroke-linecap="butt"/><path d="M452.58798,126.39113c0,1.89471 -1.45065,3.4307 -3.2401,3.4307c-1.78946,0 -3.2401,-1.53599 -3.2401,-3.4307c0,-1.89471 1.45065,-3.4307 3.2401,-3.4307c1.78946,0 3.2401,1.53597 3.2401,3.4307z" fill="#1b1f28" stroke="none" stroke-width="0" stroke-linecap="butt"/><path d="M405.67758,116.87004c0,1.89471 -1.45065,3.4307 -3.2401,3.4307c-1.78946,0 -3.2401,-1.53599 -3.2401,-3.4307c0,-1.89471 1.45065,-3.4307 3.2401,-3.4307c1.78946,0 3.2401,1.53597 3.2401,3.4307z" fill="#1b1f28" stroke="none" stroke-width="0" stroke-linecap="butt"/><path d="M405.57979,126.34754c0,1.89471 -1.45065,3.4307 -3.2401,3.4307c-1.78946,0 -3.2401,-1.53599 -3.2401,-3.4307c0,-1.89471 1.45065,-3.4307 3.2401,-3.4307c1.78946,0 3.2401,1.53597 3.2401,3.4307z" fill="#1b1f28" stroke="none" stroke-width="0" stroke-linecap="butt"/><text transform="translate(403.74604,125.27532) scale(0.28721,0.28721)" font-size="40" xml:space="preserve" fill="#ffffff" fill-rule="nonzero" stroke="none" stroke-width="1" stroke-linecap="butt" stroke-linejoin="miter" stroke-miterlimit="10" stroke-dasharray="" stroke-dashoffset="0" font-family="Sans Serif" font-weight="normal" text-anchor="start" style="mix-blend-mode: normal"><tspan x="0" dy="0">关闭通知</tspan></text></g></g></svg>