<svg version="1.1" xmlns="http://www.w3.org/2000/svg" xmlns:xlink="http://www.w3.org/1999/xlink" width="263.00004" height="227.70584" viewBox="0,0,263.00004,227.70584"><g transform="translate(-185.66669,-107.27143)"><g data-paper-data="{&quot;isPaintingLayer&quot;:true}" fill-rule="nonzero" stroke-linecap="butt" stroke-linejoin="miter" stroke-miterlimit="10" stroke-dasharray="" stroke-dashoffset="0" style="mix-blend-mode: normal"><path d="M204.33333,334.97727v-227.61056h227.5v227.61056z" fill="#f9e15e" stroke="none" stroke-width="0"/><path d="M185.66669,317.89525v-192.8619h263v192.8619z" fill="#f9e15e" stroke="none" stroke-width="0"/><path d="M185.71432,125.27143c0,-9.94113 8.05887,-18 18,-18c9.94113,0 18,8.05887 18,18c0,9.94113 -8.05887,18 -18,18c-9.94113,0 -18,-8.05887 -18,-18z" fill="#f9e15e" stroke="none" stroke-width="0"/><path d="M185.9286,316.91058c0,-9.94112 8.05888,-18 18,-18c9.94113,0 18,8.05888 18,18c0,9.94113 -8.05887,18 -18,18c-9.94112,0 -18,-8.05887 -18,-18z" fill="#f9e15e" stroke="none" stroke-width="0"/><path d="M412.66673,125.36666c0,-9.94112 8.05888,-18 18,-18c9.94112,0 18,8.05888 18,18c0,9.94112 -8.05888,18 -18,18c-9.94112,0 -18,-8.05887 -18,-18z" fill="#f9e15e" stroke="none" stroke-width="0"/><path d="M412.66673,316.97727c0,-9.94112 8.05888,-18 18,-18c9.94113,0 18,8.05888 18,18c0,9.94113 -8.05887,18 -18,18c-9.94112,0 -18,-8.05887 -18,-18z" fill="#f9e15e" stroke="none" stroke-width="0"/><text transform="translate(243.47444,276.91351) scale(1.00965,1.00965)" font-size="40" xml:space="preserve" fill="#000000" fill-rule="nonzero" stroke="none" stroke-width="1" stroke-linecap="butt" stroke-linejoin="miter" stroke-miterlimit="10" stroke-dasharray="" stroke-dashoffset="0" font-family="Sans Serif" font-weight="normal" text-anchor="start" style="mix-blend-mode: normal"><tspan x="0" dy="0">〬c~    〬c </tspan></text><text transform="translate(291.00001,206.95) scale(0.47917,0.47917)" font-size="40" xml:space="preserve" fill="#000000" fill-rule="nonzero" stroke="#000000" stroke-width="1" stroke-linecap="butt" stroke-linejoin="miter" stroke-miterlimit="10" stroke-dasharray="" stroke-dashoffset="0" font-family="Sans Serif" font-weight="normal" text-anchor="start" style="mix-blend-mode: normal"><tspan x="0" dy="0">风级：    - </tspan></text></g></g></svg>