<svg version="1.1" xmlns="http://www.w3.org/2000/svg" xmlns:xlink="http://www.w3.org/1999/xlink" width="31.375" height="31.32134" viewBox="0,0,31.375,31.32134"><g transform="translate(-304.375,-164.32499)"><g data-paper-data="{&quot;isPaintingLayer&quot;:true}" fill-rule="nonzero" stroke="none" stroke-width="0" stroke-linecap="butt" stroke-linejoin="miter" stroke-miterlimit="10" stroke-dasharray="" stroke-dashoffset="0" style="mix-blend-mode: normal"><path d="M304.375,191.625v-23.5h31.25v23.5z" fill="#f1f1f9"/><path d="M308.27798,164.35366l23.49996,0.04342l-0.05591,31.24926l-23.49996,-0.04342z" fill="#f1f1f9"/><path d="M312,168.2c0,2.1401 -1.67893,3.875 -3.75,3.875c-2.07107,0 -3.75,-1.7349 -3.75,-3.875c0,-2.1401 1.67893,-3.875 3.75,-3.875c2.07107,0 3.75,1.7349 3.75,3.875z" fill="#f1f1f9"/><path d="M335.75,168.2c0,2.14011 -1.67893,3.875 -3.75,3.875c-2.07107,0 -3.75,-1.73489 -3.75,-3.875c0,-2.14011 1.67893,-3.875 3.75,-3.875c2.07107,0 3.75,1.73489 3.75,3.875z" fill="#f1f1f9"/><path d="M335.75,191.7c0,2.14011 -1.67893,3.875 -3.75,3.875c-2.07107,0 -3.75,-1.73489 -3.75,-3.875c0,-2.14011 1.67893,-3.875 3.75,-3.875c2.07107,0 3.75,1.73489 3.75,3.875z" fill="#f1f1f9"/><path d="M312,191.7c0,2.14011 -1.67893,3.875 -3.75,3.875c-2.07107,0 -3.75,-1.73489 -3.75,-3.875c0,-2.14011 1.67893,-3.875 3.75,-3.875c2.07107,0 3.75,1.73489 3.75,3.875z" fill="#f1f1f9"/></g></g></svg>