<svg version="1.1" xmlns="http://www.w3.org/2000/svg" xmlns:xlink="http://www.w3.org/1999/xlink" width="60.09295" height="18.47516" viewBox="0,0,60.09295,18.47516"><g transform="translate(-290.00451,-135.94536)"><g data-paper-data="{&quot;isPaintingLayer&quot;:true}" fill-rule="nonzero" stroke="none" stroke-linecap="butt" stroke-linejoin="miter" stroke-miterlimit="10" stroke-dasharray="" stroke-dashoffset="0" style="mix-blend-mode: normal"><path d="M290.00451,150.69763v-10.2203h59.93918v10.2203z" fill="#1b1f28" stroke-width="0"/><path d="M293.66668,154.42052v-18.47516h52v18.47516z" fill="#1b1f28" stroke-width="0"/><path d="M350.09746,139.86756c0,2.12323 -1.6256,3.84446 -3.63088,3.84446c-2.00527,0 -3.63088,-1.72123 -3.63088,-3.84446c0,-2.12323 1.6256,-3.84446 3.63088,-3.84446c2.00527,0 3.63088,1.72122 3.63088,3.84446z" fill="#1b1f28" stroke-width="0"/><path d="M349.98787,150.48812c0,2.12323 -1.6256,3.84446 -3.63088,3.84446c-2.00527,0 -3.63088,-1.72123 -3.63088,-3.84446c0,-2.12323 1.6256,-3.84445 3.63088,-3.84445c2.00527,0 3.63088,1.72122 3.63088,3.84445z" fill="#1b1f28" stroke-width="0"/><path d="M297.41981,139.81871c0,2.12323 -1.6256,3.84446 -3.63088,3.84446c-2.00527,0 -3.63087,-1.72123 -3.63087,-3.84446c0,-2.12323 1.6256,-3.84445 3.63087,-3.84445c2.00527,0 3.63088,1.72122 3.63088,3.84445z" fill="#1b1f28" stroke-width="0"/><path d="M297.31022,150.43926c0,2.12323 -1.6256,3.84446 -3.63088,3.84446c-2.00527,0 -3.63088,-1.72123 -3.63088,-3.84446c0,-2.12323 1.6256,-3.84446 3.63088,-3.84446c2.00527,0 3.63088,1.72122 3.63088,3.84446z" fill="#1b1f28" stroke-width="0"/><g data-paper-data="{&quot;index&quot;:null}" fill="#ffffff" stroke-width="1"><path d="M305.86099,139.94406c1.33601,0.8293 2.33324,2.1609 2.78987,3.66189c0.09575,0.43306 -0.45515,0.78069 -0.81162,0.52586c-0.31669,-0.31964 -0.38297,-0.78953 -0.58625,-1.17693c-0.9383,-1.8928 -3.08742,-3.10509 -5.19529,-2.90476c-1.86777,0.16204 -3.64863,1.36106 -4.38955,3.09921c0.7586,0.05008 1.52456,-0.04566 2.27874,0.05597c0.48756,0.16203 0.40655,0.95598 -0.09133,1.037c-1.12832,0.04271 -2.25958,0.01473 -3.38938,0.0162c-0.35941,0.03829 -0.62603,-0.31669 -0.58626,-0.65254c0.00443,-1.08561 -0.01325,-2.17416 0.01474,-3.25977c-0.00442,-0.56269 0.89411,-0.67315 1.03552,-0.13551c0.08249,0.62308 0.03978,1.26089 0.04714,1.88839c0.83225,-1.29772 2.09167,-2.35092 3.57941,-2.80313c1.74845,-0.58479 3.75321,-0.35647 5.30429,0.64812z"/><path d="M309.12816,147.12202c-0.00442,1.08708 0.01325,2.17415 -0.00884,3.25976c0,0.57447 -0.93978,0.70999 -1.05909,0.1311c-0.09132,-0.52586 -0.0221,-1.06352 -0.06481,-1.5938c-0.61424,0.72766 -1.26384,1.45238 -2.10198,1.92816c-1.41261,0.83814 -3.14928,1.11654 -4.75044,0.74534c-1.97677,-0.46399 -3.68547,-1.92964 -4.4529,-3.80772c-0.10606,-0.30491 -0.31228,-0.61424 -0.21948,-0.95009c0.13699,-0.25483 0.44779,-0.39918 0.72619,-0.29018c0.2239,0.13552 0.31376,0.39477 0.40803,0.62456c0.58331,1.68659 2.09902,2.99461 3.83128,3.39233c2.35533,0.54795 5.03178,-0.72915 5.9804,-2.97695c-0.7586,-0.02357 -1.51868,0.0221 -2.2758,-0.02209c-0.56269,-0.08838 -0.55679,-0.9928 0.00884,-1.07382c1.1298,-0.0383 2.26253,-0.01621 3.39233,-0.01031c0.35057,-0.03682 0.62749,0.30933 0.58625,0.6437z"/></g><text transform="translate(319.40683,148.70966) scale(0.26214,0.26214)" font-size="40" xml:space="preserve" fill="#ffffff" fill-rule="nonzero" stroke="none" stroke-width="1" stroke-linecap="butt" stroke-linejoin="miter" stroke-miterlimit="10" stroke-dasharray="" stroke-dashoffset="0" font-family="Sans Serif" font-weight="normal" text-anchor="start" style="mix-blend-mode: normal"><tspan x="0" dy="0">重启</tspan></text></g></g></svg>