<svg version="1.1" xmlns="http://www.w3.org/2000/svg" xmlns:xlink="http://www.w3.org/1999/xlink" width="639.06306" height="333.49849" viewBox="0,0,639.06306,333.49849"><g transform="translate(-0.93694,0.33334)"><g data-paper-data="{&quot;isPaintingLayer&quot;:true}" fill-rule="nonzero" stroke="none" stroke-linecap="butt" stroke-linejoin="miter" stroke-miterlimit="10" stroke-dasharray="" stroke-dashoffset="0" style="mix-blend-mode: normal"><path d="M1,321.15615v-321.48949h639v321.48949z" fill="#1b1f28" stroke-width="0"/><path d="M12.00601,333.16515v-333.003h617.97898v333.003z" fill="#1b1f28" stroke-width="0"/><path d="M0.93694,322.54654c0,-5.80479 4.70572,-10.51051 10.51051,-10.51051c5.80479,0 10.51051,4.70572 10.51051,10.51051c0,5.80479 -4.70572,10.51051 -10.51051,10.51051c-5.80479,0 -10.51051,-4.70572 -10.51051,-10.51051z" fill="#1b1f28" stroke-width="0"/><path d="M618.77853,322.54203c0,-5.8048 4.70572,-10.51051 10.51051,-10.51051c5.80479,0 10.51051,4.70571 10.51051,10.51051c0,5.8048 -4.70572,10.51051 -10.51051,10.51051c-5.8048,0 -10.51051,-4.70571 -10.51051,-10.51051z" fill="#1b1f28" stroke-width="0"/><text transform="translate(168.43694,43.66666) scale(0.5,0.5)" font-size="40" xml:space="preserve" fill="#ffffff" fill-rule="nonzero" stroke="none" stroke-width="1" stroke-linecap="butt" stroke-linejoin="miter" stroke-miterlimit="10" stroke-dasharray="" stroke-dashoffset="0" font-family="Sans Serif" font-weight="normal" text-anchor="start" style="mix-blend-mode: normal"><tspan x="0" dy="0">*如果一些文件夹无法显示，请重启explorer</tspan></text></g></g></svg>