<svg version="1.1" xmlns="http://www.w3.org/2000/svg" xmlns:xlink="http://www.w3.org/1999/xlink" width="163.56897" height="51.86382" viewBox="0,0,163.56897,51.86382"><g transform="translate(-303.84548,-152.62023)"><g data-paper-data="{&quot;isPaintingLayer&quot;:true}" fill-rule="nonzero" stroke="none" stroke-width="1" stroke-linecap="butt" stroke-linejoin="miter" stroke-miterlimit="10" stroke-dasharray="" stroke-dashoffset="0" style="mix-blend-mode: normal"><text transform="translate(391.11659,192.78192) scale(0.93617,0.93617)" font-size="40" xml:space="preserve" fill="#ffffff" fill-rule="nonzero" stroke="none" stroke-width="1" stroke-linecap="butt" stroke-linejoin="miter" stroke-miterlimit="10" stroke-dasharray="" stroke-dashoffset="0" font-family="Sans Serif" font-weight="normal" text-anchor="start" style="mix-blend-mode: normal"><tspan x="0" dy="0">系统</tspan></text><g><path d="M304.54788,161.02072c15.50633,-0.12842 32.54152,-0.38753 48.04782,-0.19492l-0.02579,2.40149c-4.34798,0.0642 -9.95502,-0.02368 -14.30302,0.16892c-5.85645,-0.0642 -11.71295,-0.0642 -17.56935,0c-4.03742,-0.0642 -12.11221,-0.21401 -16.14963,-0.27821z" fill="#7adfea"/><path d="M304.36055,176.47189c0.4708,-3.33852 -0.16239,-10.01547 0.30842,-13.35397c3.89489,0.0642 13.25955,0.21401 17.15441,0.27821c-4.02333,6.24898 -10.5719,10.55046 -17.46284,13.07576z" fill="#39d3e2"/><path d="M321.82342,163.39613c5.64974,-0.0642 11.29951,-0.0642 16.94923,0c-11.25667,7.51157 -22.12812,15.83638 -34.39069,21.70017c-0.32098,-2.86767 -0.32102,-5.75672 -0.02139,-8.62442c6.89096,-2.52531 13.43953,-6.82677 17.46283,-13.07576z" fill="#2fc3dc"/><path d="M338.77265,163.39613c4.19452,-0.19259 8.38902,-0.27818 12.58355,-0.34237l1.37945,-0.17353l0.03304,1.71432c-16.92783,8.26063 -32.46466,18.93948 -48.49369,28.76237c-0.214,-2.7607 -0.19259,-5.52134 0.107,-8.26059c12.26254,-5.86378 23.13398,-14.18854 34.39069,-21.70015z" fill="#29b4d7"/><path d="M304.27498,193.35699c16.02899,-9.82289 31.56581,-20.50173 48.4937,-28.76236c0.12842,1.73345 0.38521,5.15751 0.51361,6.86957c-11.83447,7.36183 -24.03285,14.27419 -34.64749,23.41222c-3.70234,0.107 -11.08549,0.29963 -14.78782,0.40663z" fill="#22a6d2"/><path d="M318.63469,194.87639c10.61469,-9.13802 22.81302,-16.05038 34.64749,-23.41221c0.08558,3.44552 0.23545,6.89096 -0.32098,10.29366c-7.12633,3.29573 -13.46096,8.02523 -19.3675,13.16139c-3.74507,-0.0214 -11.2139,-0.04284 -14.95901,-0.04284z" fill="#1a96cc"/><path d="M333.5937,194.9192c5.90656,-5.13616 12.2411,-9.86565 19.3675,-13.16141c0.44942,4.4941 0.53503,9.00967 0.38524,13.52518c-6.59133,-0.08563 -13.16139,-0.14979 -19.75272,-0.36384z" fill="#1284c6"/><path d="M303.8469,195.23002c3.70234,-0.09303 11.08549,-0.2606 14.78777,-0.35366c3.74511,0 11.2139,0.01863 14.959,0.03725c6.59133,0.18613 13.16133,0.24195 19.75272,0.31641c0.32101,2.23342 -0.55638,4.00161 -2.63228,5.26725c-14.68077,0.40947 -29.40435,0.57693 -44.08514,0.03721c-1.90465,-1.35866 -2.82486,-3.1268 -2.78207,-5.30445z" fill="#0e4866"/></g></g></g></svg>