<svg version="1.1" xmlns="http://www.w3.org/2000/svg" xmlns:xlink="http://www.w3.org/1999/xlink" width="60.09295" height="18.47516" viewBox="0,0,60.09295,18.47516"><g transform="translate(-290.00451,-135.94536)"><g data-paper-data="{&quot;isPaintingLayer&quot;:true}" fill-rule="nonzero" stroke="none" stroke-linecap="butt" stroke-linejoin="miter" stroke-miterlimit="10" stroke-dasharray="" stroke-dashoffset="0" style="mix-blend-mode: normal"><path d="M290.00451,150.69763v-10.2203h59.93918v10.2203z" fill="#2d3444" stroke-width="0"/><path d="M293.66668,154.42052v-18.47516h52v18.47516z" fill="#2d3444" stroke-width="0"/><text transform="translate(306.26973,148.70966) scale(0.26214,0.26214)" font-size="40" xml:space="preserve" fill="#ffffff" fill-rule="nonzero" stroke="none" stroke-width="1" stroke-linecap="butt" stroke-linejoin="miter" stroke-miterlimit="10" stroke-dasharray="" stroke-dashoffset="0" font-family="Sans Serif" font-weight="normal" text-anchor="start" style="mix-blend-mode: normal"><tspan x="0" dy="0">登  录</tspan></text><path d="M350.09746,139.86756c0,2.12323 -1.6256,3.84446 -3.63088,3.84446c-2.00527,0 -3.63088,-1.72123 -3.63088,-3.84446c0,-2.12323 1.6256,-3.84446 3.63088,-3.84446c2.00527,0 3.63088,1.72122 3.63088,3.84446z" fill="#2d3444" stroke-width="0"/><path d="M349.98787,150.48812c0,2.12323 -1.6256,3.84446 -3.63088,3.84446c-2.00527,0 -3.63088,-1.72123 -3.63088,-3.84446c0,-2.12323 1.6256,-3.84445 3.63088,-3.84445c2.00527,0 3.63088,1.72122 3.63088,3.84445z" fill="#2d3444" stroke-width="0"/><path d="M297.41981,139.81871c0,2.12323 -1.6256,3.84446 -3.63088,3.84446c-2.00527,0 -3.63087,-1.72123 -3.63087,-3.84446c0,-2.12323 1.6256,-3.84445 3.63087,-3.84445c2.00527,0 3.63088,1.72122 3.63088,3.84445z" fill="#2d3444" stroke-width="0"/><path d="M297.31022,150.43926c0,2.12323 -1.6256,3.84446 -3.63088,3.84446c-2.00527,0 -3.63088,-1.72123 -3.63088,-3.84446c0,-2.12323 1.6256,-3.84446 3.63088,-3.84446c2.00527,0 3.63088,1.72122 3.63088,3.84446z" fill="#2d3444" stroke-width="0"/></g></g></svg>